  0
SECTION
  2
BLOCKS
  0
ENDSEC
  0
SECTION
  2
ENTITIES
  0
LINE
  8
0
 10
35.9393
 20
-2.74861
 11
41.5684
 21
0.501373
  0
LINE
  8
0
 10
41.5684
 20
0.501373
 11
41.584
 21
3.97446
  0
LINE
  8
0
 10
41.584
 20
3.97446
 11
38.909
 21
8.60768
  0
LINE
  8
0
 10
38.909
 20
8.60768
 11
32.8468
 21
5.10768
  0
LINE
  8
0
 10
32.8468
 20
5.10768
 11
32.2947
 21
4.80792
  0
LINE
  8
0
 10
32.2947
 20
4.80792
 11
31.7276
 21
4.53745
  0
LINE
  8
0
 10
31.7276
 20
4.53745
 11
31.1472
 21
4.29703
  0
LINE
  8
0
 10
31.1472
 20
4.29703
 11
30.555
 21
4.08731
  0
LINE
  8
0
 10
30.555
 20
4.08731
 11
29.9526
 21
3.90889
  0
LINE
  8
0
 10
29.9526
 20
3.90889
 11
29.7406
 21
3.85799
  0
LINE
  8
0
 10
29.7406
 20
3.85799
 11
29.6306
 21
4.69302
  0
LINE
  8
0
 10
29.6306
 20
4.69302
 11
29.3444
 21
6.23735
  0
LINE
  8
0
 10
29.3444
 20
6.23735
 11
28.9778
 21
7.76456
  0
LINE
  8
0
 10
28.9778
 20
7.76456
 11
28.5317
 21
9.27051
  0
LINE
  8
0
 10
28.5317
 20
9.27051
 11
28.0074
 21
10.751
  0
LINE
  8
0
 10
28.0074
 20
10.751
 11
27.4064
 21
12.2021
  0
LINE
  8
0
 10
27.4064
 20
12.2021
 11
26.7302
 21
13.6197
  0
LINE
  8
0
 10
26.7302
 20
13.6197
 11
25.9808
 21
15
  0
LINE
  8
0
 10
25.9808
 20
15
 11
25.1601
 21
16.3392
  0
LINE
  8
0
 10
25.1601
 20
16.3392
 11
24.2705
 21
17.6335
  0
LINE
  8
0
 10
24.2705
 20
17.6335
 11
23.3144
 21
18.8796
  0
LINE
  8
0
 10
23.3144
 20
18.8796
 11
22.2943
 21
20.0739
  0
LINE
  8
0
 10
22.2943
 20
20.0739
 11
21.2132
 21
21.2132
  0
LINE
  8
0
 10
21.2132
 20
21.2132
 11
20.0739
 21
22.2943
  0
LINE
  8
0
 10
20.0739
 20
22.2943
 11
18.8796
 21
23.3144
  0
LINE
  8
0
 10
18.8796
 20
23.3144
 11
18.2114
 21
23.8271
  0
LINE
  8
0
 10
18.2114
 20
23.8271
 11
18.3615
 21
23.9853
  0
LINE
  8
0
 10
18.3615
 20
23.9853
 11
18.8172
 21
24.4177
  0
LINE
  8
0
 10
18.8172
 20
24.4177
 11
19.2949
 21
24.8257
  0
LINE
  8
0
 10
19.2949
 20
24.8257
 11
19.7934
 21
25.2082
  0
LINE
  8
0
 10
19.7934
 20
25.2082
 11
20.3111
 21
25.564
  0
LINE
  8
0
 10
20.3111
 20
25.564
 11
20.8468
 21
25.8923
  0
LINE
  8
0
 10
20.8468
 20
25.8923
 11
26.909
 21
29.3923
  0
LINE
  8
0
 10
26.909
 20
29.3923
 11
24.234
 21
34.0255
  0
LINE
  8
0
 10
24.234
 20
34.0255
 11
21.2184
 21
35.7486
  0
LINE
  8
0
 10
21.2184
 20
35.7486
 11
15.5892
 21
32.4986
  0
LINE
  8
0
 10
15.5892
 20
32.4986
 11
15.5757
 21
29.4694
  0
LINE
  8
0
 10
15.5757
 20
29.4694
 11
13.9138
 21
29.2506
  0
LINE
  8
0
 10
13.9138
 20
29.2506
 11
11.9338
 21
29.5113
  0
LINE
  8
0
 10
11.9338
 20
29.5113
 11
10.0888
 21
30.2755
  0
LINE
  8
0
 10
10.0888
 20
30.2755
 11
8.50439
 21
31.4913
  0
LINE
  8
0
 10
8.50439
 20
31.4913
 11
7.28868
 21
33.0756
  0
LINE
  8
0
 10
7.28868
 20
33.0756
 11
6.52443
 21
34.9207
  0
LINE
  8
0
 10
6.52443
 20
34.9207
 11
6.26376
 21
36.9006
  0
LINE
  8
0
 10
6.26376
 20
36.9006
 11
6.52443
 21
38.8806
  0
LINE
  8
0
 10
6.52443
 20
38.8806
 11
7.28868
 21
40.7256
  0
LINE
  8
0
 10
7.28868
 20
40.7256
 11
8.30913
 21
42.0555
  0
LINE
  8
0
 10
8.30913
 20
42.0555
 11
10.9393
 21
40.5526
  0
LINE
  8
0
 10
10.9393
 20
40.5526
 11
16.5684
 21
43.8026
  0
LINE
  8
0
 10
16.5684
 20
43.8026
 11
16.584
 21
47.2757
  0
LINE
  8
0
 10
16.584
 20
47.2757
 11
13.909
 21
51.909
  0
LINE
  8
0
 10
13.909
 20
51.909
 11
0
 21
43.8786
  0
LINE
  8
0
 10
0
 20
43.8786
 11
-13.909
 21
51.909
  0
LINE
  8
0
 10
-13.909
 20
51.909
 11
-16.584
 21
47.2757
  0
LINE
  8
0
 10
-16.584
 20
47.2757
 11
-16.5684
 21
43.8026
  0
LINE
  8
0
 10
-16.5684
 20
43.8026
 11
-10.9393
 21
40.5526
  0
LINE
  8
0
 10
-10.9393
 20
40.5526
 11
-8.30913
 21
42.0555
  0
LINE
  8
0
 10
-8.30913
 20
42.0555
 11
-7.28868
 21
40.7256
  0
LINE
  8
0
 10
-7.28868
 20
40.7256
 11
-6.52443
 21
38.8806
  0
LINE
  8
0
 10
-6.52443
 20
38.8806
 11
-6.26376
 21
36.9006
  0
LINE
  8
0
 10
-6.26376
 20
36.9006
 11
-6.52443
 21
34.9207
  0
LINE
  8
0
 10
-6.52443
 20
34.9207
 11
-7.28868
 21
33.0756
  0
LINE
  8
0
 10
-7.28868
 20
33.0756
 11
-8.50439
 21
31.4913
  0
LINE
  8
0
 10
-8.50439
 20
31.4913
 11
-10.0888
 21
30.2755
  0
LINE
  8
0
 10
-10.0888
 20
30.2755
 11
-11.9338
 21
29.5113
  0
LINE
  8
0
 10
-11.9338
 20
29.5113
 11
-13.9138
 21
29.2506
  0
LINE
  8
0
 10
-13.9138
 20
29.2506
 11
-15.5757
 21
29.4694
  0
LINE
  8
0
 10
-15.5757
 20
29.4694
 11
-15.5892
 21
32.4986
  0
LINE
  8
0
 10
-15.5892
 20
32.4986
 11
-21.2184
 21
35.7486
  0
LINE
  8
0
 10
-21.2184
 20
35.7486
 11
-24.234
 21
34.0255
  0
LINE
  8
0
 10
-24.234
 20
34.0255
 11
-26.909
 21
29.3923
  0
LINE
  8
0
 10
-26.909
 20
29.3923
 11
-20.8468
 21
25.8923
  0
LINE
  8
0
 10
-20.8468
 20
25.8923
 11
-20.3111
 21
25.564
  0
LINE
  8
0
 10
-20.3111
 20
25.564
 11
-19.7934
 21
25.2082
  0
LINE
  8
0
 10
-19.7934
 20
25.2082
 11
-19.2949
 21
24.8257
  0
LINE
  8
0
 10
-19.2949
 20
24.8257
 11
-18.8172
 21
24.4177
  0
LINE
  8
0
 10
-18.8172
 20
24.4177
 11
-18.3615
 21
23.9853
  0
LINE
  8
0
 10
-18.3615
 20
23.9853
 11
-18.2114
 21
23.8271
  0
LINE
  8
0
 10
-18.2114
 20
23.8271
 11
-18.8796
 21
23.3144
  0
LINE
  8
0
 10
-18.8796
 20
23.3144
 11
-20.0739
 21
22.2943
  0
LINE
  8
0
 10
-20.0739
 20
22.2943
 11
-21.2132
 21
21.2132
  0
LINE
  8
0
 10
-21.2132
 20
21.2132
 11
-22.2943
 21
20.0739
  0
LINE
  8
0
 10
-22.2943
 20
20.0739
 11
-23.3144
 21
18.8796
  0
LINE
  8
0
 10
-23.3144
 20
18.8796
 11
-24.2705
 21
17.6335
  0
LINE
  8
0
 10
-24.2705
 20
17.6335
 11
-25.1601
 21
16.3392
  0
LINE
  8
0
 10
-25.1601
 20
16.3392
 11
-25.9808
 21
15
  0
LINE
  8
0
 10
-25.9808
 20
15
 11
-26.7302
 21
13.6197
  0
LINE
  8
0
 10
-26.7302
 20
13.6197
 11
-27.4064
 21
12.2021
  0
LINE
  8
0
 10
-27.4064
 20
12.2021
 11
-28.0074
 21
10.751
  0
LINE
  8
0
 10
-28.0074
 20
10.751
 11
-28.5317
 21
9.27051
  0
LINE
  8
0
 10
-28.5317
 20
9.27051
 11
-28.9778
 21
7.76456
  0
LINE
  8
0
 10
-28.9778
 20
7.76456
 11
-29.3444
 21
6.23735
  0
LINE
  8
0
 10
-29.3444
 20
6.23735
 11
-29.6306
 21
4.69302
  0
LINE
  8
0
 10
-29.6306
 20
4.69302
 11
-29.7406
 21
3.85799
  0
LINE
  8
0
 10
-29.7406
 20
3.85799
 11
-29.9526
 21
3.90889
  0
LINE
  8
0
 10
-29.9526
 20
3.90889
 11
-30.555
 21
4.08731
  0
LINE
  8
0
 10
-30.555
 20
4.08731
 11
-31.1472
 21
4.29703
  0
LINE
  8
0
 10
-31.1472
 20
4.29703
 11
-31.7276
 21
4.53745
  0
LINE
  8
0
 10
-31.7276
 20
4.53745
 11
-32.2947
 21
4.80792
  0
LINE
  8
0
 10
-32.2947
 20
4.80792
 11
-32.8468
 21
5.10768
  0
LINE
  8
0
 10
-32.8468
 20
5.10768
 11
-38.909
 21
8.60768
  0
LINE
  8
0
 10
-38.909
 20
8.60768
 11
-41.584
 21
3.97446
  0
LINE
  8
0
 10
-41.584
 20
3.97446
 11
-41.5684
 21
0.501373
  0
LINE
  8
0
 10
-41.5684
 20
0.501373
 11
-35.9393
 21
-2.74861
  0
LINE
  8
0
 10
-35.9393
 20
-2.74861
 11
-33.3091
 21
-1.24576
  0
LINE
  8
0
 10
-33.3091
 20
-1.24576
 11
-32.2887
 21
-2.57562
  0
LINE
  8
0
 10
-32.2887
 20
-2.57562
 11
-31.5244
 21
-4.42065
  0
LINE
  8
0
 10
-31.5244
 20
-4.42065
 11
-31.2638
 21
-6.40062
  0
LINE
  8
0
 10
-31.2638
 20
-6.40062
 11
-31.5244
 21
-8.3806
  0
LINE
  8
0
 10
-31.5244
 20
-8.3806
 11
-32.2887
 21
-10.2256
  0
LINE
  8
0
 10
-32.2887
 20
-10.2256
 11
-33.5044
 21
-11.81
  0
LINE
  8
0
 10
-33.5044
 20
-11.81
 11
-35.0888
 21
-13.0257
  0
LINE
  8
0
 10
-35.0888
 20
-13.0257
 11
-36.9338
 21
-13.79
  0
LINE
  8
0
 10
-36.9338
 20
-13.79
 11
-38.9138
 21
-14.0506
  0
LINE
  8
0
 10
-38.9138
 20
-14.0506
 11
-40.5757
 21
-13.8318
  0
LINE
  8
0
 10
-40.5757
 20
-13.8318
 11
-40.5892
 21
-10.8026
  0
LINE
  8
0
 10
-40.5892
 20
-10.8026
 11
-46.2184
 21
-7.55264
  0
LINE
  8
0
 10
-46.2184
 20
-7.55264
 11
-49.234
 21
-9.27573
  0
LINE
  8
0
 10
-49.234
 20
-9.27573
 11
-51.909
 21
-13.909
  0
LINE
  8
0
 10
-51.909
 20
-13.909
 11
-38
 21
-21.9393
  0
LINE
  8
0
 10
-38
 20
-21.9393
 11
-38
 21
-38
  0
LINE
  8
0
 10
-38
 20
-38
 11
-32.65
 21
-38
  0
LINE
  8
0
 10
-32.65
 20
-38
 11
-29.65
 21
-36.25
  0
LINE
  8
0
 10
-29.65
 20
-36.25
 11
-29.65
 21
-29.75
  0
LINE
  8
0
 10
-29.65
 20
-29.75
 11
-32.2666
 21
-28.2237
  0
LINE
  8
0
 10
-32.2666
 20
-28.2237
 11
-31.6251
 21
-26.675
  0
LINE
  8
0
 10
-31.6251
 20
-26.675
 11
-30.4094
 21
-25.0906
  0
LINE
  8
0
 10
-30.4094
 20
-25.0906
 11
-28.825
 21
-23.8749
  0
LINE
  8
0
 10
-28.825
 20
-23.8749
 11
-26.98
 21
-23.1107
  0
LINE
  8
0
 10
-26.98
 20
-23.1107
 11
-25
 21
-22.85
  0
LINE
  8
0
 10
-25
 20
-22.85
 11
-23.02
 21
-23.1107
  0
LINE
  8
0
 10
-23.02
 20
-23.1107
 11
-21.175
 21
-23.8749
  0
LINE
  8
0
 10
-21.175
 20
-23.8749
 11
-19.5906
 21
-25.0906
  0
LINE
  8
0
 10
-19.5906
 20
-25.0906
 11
-18.3749
 21
-26.675
  0
LINE
  8
0
 10
-18.3749
 20
-26.675
 11
-17.7334
 21
-28.2237
  0
LINE
  8
0
 10
-17.7334
 20
-28.2237
 11
-20.35
 21
-29.75
  0
LINE
  8
0
 10
-20.35
 20
-29.75
 11
-20.35
 21
-36.25
  0
LINE
  8
0
 10
-20.35
 20
-36.25
 11
-17.35
 21
-38
  0
LINE
  8
0
 10
-17.35
 20
-38
 11
-12
 21
-38
  0
LINE
  8
0
 10
-12
 20
-38
 11
-12
 21
-31
  0
LINE
  8
0
 10
-12
 20
-31
 11
-11.9836
 21
-30.372
  0
LINE
  8
0
 10
-11.9836
 20
-30.372
 11
-11.9342
 21
-29.7457
  0
LINE
  8
0
 10
-11.9342
 20
-29.7457
 11
-11.8522
 21
-29.1228
  0
LINE
  8
0
 10
-11.8522
 20
-29.1228
 11
-11.7378
 21
-28.5051
  0
LINE
  8
0
 10
-11.7378
 20
-28.5051
 11
-11.5911
 21
-27.8942
  0
LINE
  8
0
 10
-11.5911
 20
-27.8942
 11
-11.5292
 21
-27.6851
  0
LINE
  8
0
 10
-11.5292
 20
-27.6851
 11
-10.751
 21
-28.0074
  0
LINE
  8
0
 10
-10.751
 20
-28.0074
 11
-9.27051
 21
-28.5317
  0
LINE
  8
0
 10
-9.27051
 20
-28.5317
 11
-7.76456
 21
-28.9778
  0
LINE
  8
0
 10
-7.76456
 20
-28.9778
 11
-6.23735
 21
-29.3444
  0
LINE
  8
0
 10
-6.23735
 20
-29.3444
 11
-4.69302
 21
-29.6306
  0
LINE
  8
0
 10
-4.69302
 20
-29.6306
 11
-3.13585
 21
-29.8356
  0
LINE
  8
0
 10
-3.13585
 20
-29.8356
 11
-1.57007
 21
-29.9589
  0
LINE
  8
0
 10
-1.57007
 20
-29.9589
 11
0
 21
-30
  0
LINE
  8
0
 10
0
 20
-30
 11
1.57007
 21
-29.9589
  0
LINE
  8
0
 10
1.57007
 20
-29.9589
 11
3.13585
 21
-29.8356
  0
LINE
  8
0
 10
3.13585
 20
-29.8356
 11
4.69302
 21
-29.6306
  0
LINE
  8
0
 10
4.69302
 20
-29.6306
 11
6.23735
 21
-29.3444
  0
LINE
  8
0
 10
6.23735
 20
-29.3444
 11
7.76456
 21
-28.9778
  0
LINE
  8
0
 10
7.76456
 20
-28.9778
 11
9.27051
 21
-28.5317
  0
LINE
  8
0
 10
9.27051
 20
-28.5317
 11
10.751
 21
-28.0074
  0
LINE
  8
0
 10
10.751
 20
-28.0074
 11
11.5292
 21
-27.6851
  0
LINE
  8
0
 10
11.5292
 20
-27.6851
 11
11.5911
 21
-27.8942
  0
LINE
  8
0
 10
11.5911
 20
-27.8942
 11
11.7378
 21
-28.5051
  0
LINE
  8
0
 10
11.7378
 20
-28.5051
 11
11.8522
 21
-29.1228
  0
LINE
  8
0
 10
11.8522
 20
-29.1228
 11
11.9342
 21
-29.7457
  0
LINE
  8
0
 10
11.9342
 20
-29.7457
 11
11.9836
 21
-30.372
  0
LINE
  8
0
 10
11.9836
 20
-30.372
 11
12
 21
-31
  0
LINE
  8
0
 10
12
 20
-31
 11
12
 21
-38
  0
LINE
  8
0
 10
12
 20
-38
 11
17.35
 21
-38
  0
LINE
  8
0
 10
17.35
 20
-38
 11
20.35
 21
-36.25
  0
LINE
  8
0
 10
20.35
 20
-36.25
 11
20.35
 21
-29.75
  0
LINE
  8
0
 10
20.35
 20
-29.75
 11
17.7334
 21
-28.2237
  0
LINE
  8
0
 10
17.7334
 20
-28.2237
 11
18.3749
 21
-26.675
  0
LINE
  8
0
 10
18.3749
 20
-26.675
 11
19.5906
 21
-25.0906
  0
LINE
  8
0
 10
19.5906
 20
-25.0906
 11
21.175
 21
-23.8749
  0
LINE
  8
0
 10
21.175
 20
-23.8749
 11
23.02
 21
-23.1107
  0
LINE
  8
0
 10
23.02
 20
-23.1107
 11
25
 21
-22.85
  0
LINE
  8
0
 10
25
 20
-22.85
 11
26.98
 21
-23.1107
  0
LINE
  8
0
 10
26.98
 20
-23.1107
 11
28.825
 21
-23.8749
  0
LINE
  8
0
 10
28.825
 20
-23.8749
 11
30.4094
 21
-25.0906
  0
LINE
  8
0
 10
30.4094
 20
-25.0906
 11
31.6251
 21
-26.675
  0
LINE
  8
0
 10
31.6251
 20
-26.675
 11
32.2666
 21
-28.2237
  0
LINE
  8
0
 10
32.2666
 20
-28.2237
 11
29.65
 21
-29.75
  0
LINE
  8
0
 10
29.65
 20
-29.75
 11
29.65
 21
-36.25
  0
LINE
  8
0
 10
29.65
 20
-36.25
 11
32.65
 21
-38
  0
LINE
  8
0
 10
32.65
 20
-38
 11
38
 21
-38
  0
LINE
  8
0
 10
38
 20
-38
 11
38
 21
-21.9393
  0
LINE
  8
0
 10
38
 20
-21.9393
 11
51.909
 21
-13.909
  0
LINE
  8
0
 10
51.909
 20
-13.909
 11
49.234
 21
-9.27573
  0
LINE
  8
0
 10
49.234
 20
-9.27573
 11
46.2184
 21
-7.55264
  0
LINE
  8
0
 10
46.2184
 20
-7.55264
 11
40.5892
 21
-10.8026
  0
LINE
  8
0
 10
40.5892
 20
-10.8026
 11
40.5757
 21
-13.8318
  0
LINE
  8
0
 10
40.5757
 20
-13.8318
 11
38.9138
 21
-14.0506
  0
LINE
  8
0
 10
38.9138
 20
-14.0506
 11
36.9338
 21
-13.79
  0
LINE
  8
0
 10
36.9338
 20
-13.79
 11
35.0888
 21
-13.0257
  0
LINE
  8
0
 10
35.0888
 20
-13.0257
 11
33.5044
 21
-11.81
  0
LINE
  8
0
 10
33.5044
 20
-11.81
 11
32.2887
 21
-10.2256
  0
LINE
  8
0
 10
32.2887
 20
-10.2256
 11
31.5244
 21
-8.3806
  0
LINE
  8
0
 10
31.5244
 20
-8.3806
 11
31.2638
 21
-6.40062
  0
LINE
  8
0
 10
31.2638
 20
-6.40062
 11
31.5244
 21
-4.42065
  0
LINE
  8
0
 10
31.5244
 20
-4.42065
 11
32.2887
 21
-2.57562
  0
LINE
  8
0
 10
32.2887
 20
-2.57562
 11
33.3091
 21
-1.24576
  0
LINE
  8
0
 10
33.3091
 20
-1.24576
 11
35.9393
 21
-2.74861
  0
LINE
  8
0
 10
-0.138687
 20
22.3536
 11
-0.276993
 21
22.3645
  0
LINE
  8
0
 10
-0.276993
 20
22.3645
 11
-0.414551
 21
22.3826
  0
LINE
  8
0
 10
-0.414551
 20
22.3826
 11
-0.550964
 21
22.4079
  0
LINE
  8
0
 10
-0.550964
 20
22.4079
 11
-0.685867
 21
22.4403
  0
LINE
  8
0
 10
-0.685867
 20
22.4403
 11
-0.818893
 21
22.4797
  0
LINE
  8
0
 10
-0.818893
 20
22.4797
 11
-0.949661
 21
22.526
  0
LINE
  8
0
 10
-0.949661
 20
22.526
 11
-1.07785
 21
22.5791
  0
LINE
  8
0
 10
-1.07785
 20
22.5791
 11
-1.20306
 21
22.6388
  0
LINE
  8
0
 10
-1.20306
 20
22.6388
 11
-1.325
 21
22.705
  0
LINE
  8
0
 10
-1.325
 20
22.705
 11
-1.44328
 21
22.7775
  0
LINE
  8
0
 10
-1.44328
 20
22.7775
 11
-1.55762
 21
22.8561
  0
LINE
  8
0
 10
-1.55762
 20
22.8561
 11
-1.66769
 21
22.9406
  0
LINE
  8
0
 10
-1.66769
 20
22.9406
 11
-1.77319
 21
23.0307
  0
LINE
  8
0
 10
-1.77319
 20
23.0307
 11
-1.87383
 21
23.1262
  0
LINE
  8
0
 10
-1.87383
 20
23.1262
 11
-1.96933
 21
23.2268
  0
LINE
  8
0
 10
-1.96933
 20
23.2268
 11
-2.05943
 21
23.3323
  0
LINE
  8
0
 10
-2.05943
 20
23.3323
 11
-2.14389
 21
23.4424
  0
LINE
  8
0
 10
-2.14389
 20
23.4424
 11
-2.22247
 21
23.5567
  0
LINE
  8
0
 10
-2.22247
 20
23.5567
 11
-2.29495
 21
23.675
  0
LINE
  8
0
 10
-2.29495
 20
23.675
 11
-2.36116
 21
23.7969
  0
LINE
  8
0
 10
-2.36116
 20
23.7969
 11
-2.42088
 21
23.9221
  0
LINE
  8
0
 10
-2.42088
 20
23.9221
 11
-2.47398
 21
24.0503
  0
LINE
  8
0
 10
-2.47398
 20
24.0503
 11
-2.52029
 21
24.1811
  0
LINE
  8
0
 10
-2.52029
 20
24.1811
 11
-2.55969
 21
24.3141
  0
LINE
  8
0
 10
-2.55969
 20
24.3141
 11
-2.59209
 21
24.449
  0
LINE
  8
0
 10
-2.59209
 20
24.449
 11
-2.61737
 21
24.5854
  0
LINE
  8
0
 10
-2.61737
 20
24.5854
 11
-2.63548
 21
24.723
  0
LINE
  8
0
 10
-2.63548
 20
24.723
 11
-2.64636
 21
24.8613
  0
LINE
  8
0
 10
-2.64636
 20
24.8613
 11
-2.64999
 21
25
  0
LINE
  8
0
 10
-2.64999
 20
25
 11
-2.64636
 21
25.1387
  0
LINE
  8
0
 10
-2.64636
 20
25.1387
 11
-2.63548
 21
25.277
  0
LINE
  8
0
 10
-2.63548
 20
25.277
 11
-2.61737
 21
25.4146
  0
LINE
  8
0
 10
-2.61737
 20
25.4146
 11
-2.59209
 21
25.551
  0
LINE
  8
0
 10
-2.59209
 20
25.551
 11
-2.55969
 21
25.6859
  0
LINE
  8
0
 10
-2.55969
 20
25.6859
 11
-2.52029
 21
25.8189
  0
LINE
  8
0
 10
-2.52029
 20
25.8189
 11
-2.47398
 21
25.9497
  0
LINE
  8
0
 10
-2.47398
 20
25.9497
 11
-2.42088
 21
26.0779
  0
LINE
  8
0
 10
-2.42088
 20
26.0779
 11
-2.36116
 21
26.2031
  0
LINE
  8
0
 10
-2.36116
 20
26.2031
 11
-2.29495
 21
26.325
  0
LINE
  8
0
 10
-2.29495
 20
26.325
 11
-2.22247
 21
26.4433
  0
LINE
  8
0
 10
-2.22247
 20
26.4433
 11
-2.14389
 21
26.5576
  0
LINE
  8
0
 10
-2.14389
 20
26.5576
 11
-2.05943
 21
26.6677
  0
LINE
  8
0
 10
-2.05943
 20
26.6677
 11
-1.96933
 21
26.7732
  0
LINE
  8
0
 10
-1.96933
 20
26.7732
 11
-1.87383
 21
26.8738
  0
LINE
  8
0
 10
-1.87383
 20
26.8738
 11
-1.77319
 21
26.9693
  0
LINE
  8
0
 10
-1.77319
 20
26.9693
 11
-1.66769
 21
27.0594
  0
LINE
  8
0
 10
-1.66769
 20
27.0594
 11
-1.55762
 21
27.1439
  0
LINE
  8
0
 10
-1.55762
 20
27.1439
 11
-1.44328
 21
27.2225
  0
LINE
  8
0
 10
-1.44328
 20
27.2225
 11
-1.325
 21
27.295
  0
LINE
  8
0
 10
-1.325
 20
27.295
 11
-1.20306
 21
27.3612
  0
LINE
  8
0
 10
-1.20306
 20
27.3612
 11
-1.07785
 21
27.4209
  0
LINE
  8
0
 10
-1.07785
 20
27.4209
 11
-0.949661
 21
27.474
  0
LINE
  8
0
 10
-0.949661
 20
27.474
 11
-0.818893
 21
27.5203
  0
LINE
  8
0
 10
-0.818893
 20
27.5203
 11
-0.685867
 21
27.5597
  0
LINE
  8
0
 10
-0.685867
 20
27.5597
 11
-0.550964
 21
27.5921
  0
LINE
  8
0
 10
-0.550964
 20
27.5921
 11
-0.414551
 21
27.6174
  0
LINE
  8
0
 10
-0.414551
 20
27.6174
 11
-0.276993
 21
27.6355
  0
LINE
  8
0
 10
-0.276993
 20
27.6355
 11
-0.138687
 21
27.6464
  0
LINE
  8
0
 10
-0.138687
 20
27.6464
 11
0
 21
27.65
  0
LINE
  8
0
 10
0
 20
27.65
 11
0.138687
 21
27.6464
  0
LINE
  8
0
 10
0.138687
 20
27.6464
 11
0.276993
 21
27.6355
  0
LINE
  8
0
 10
0.276993
 20
27.6355
 11
0.414551
 21
27.6174
  0
LINE
  8
0
 10
0.414551
 20
27.6174
 11
0.550964
 21
27.5921
  0
LINE
  8
0
 10
0.550964
 20
27.5921
 11
0.685867
 21
27.5597
  0
LINE
  8
0
 10
0.685867
 20
27.5597
 11
0.818893
 21
27.5203
  0
LINE
  8
0
 10
0.818893
 20
27.5203
 11
0.949661
 21
27.474
  0
LINE
  8
0
 10
0.949661
 20
27.474
 11
1.07785
 21
27.4209
  0
LINE
  8
0
 10
1.07785
 20
27.4209
 11
1.20306
 21
27.3612
  0
LINE
  8
0
 10
1.20306
 20
27.3612
 11
1.325
 21
27.295
  0
LINE
  8
0
 10
1.325
 20
27.295
 11
1.44328
 21
27.2225
  0
LINE
  8
0
 10
1.44328
 20
27.2225
 11
1.55762
 21
27.1439
  0
LINE
  8
0
 10
1.55762
 20
27.1439
 11
1.66769
 21
27.0594
  0
LINE
  8
0
 10
1.66769
 20
27.0594
 11
1.77319
 21
26.9693
  0
LINE
  8
0
 10
1.77319
 20
26.9693
 11
1.87383
 21
26.8738
  0
LINE
  8
0
 10
1.87383
 20
26.8738
 11
1.96933
 21
26.7732
  0
LINE
  8
0
 10
1.96933
 20
26.7732
 11
2.05943
 21
26.6677
  0
LINE
  8
0
 10
2.05943
 20
26.6677
 11
2.14389
 21
26.5576
  0
LINE
  8
0
 10
2.14389
 20
26.5576
 11
2.22247
 21
26.4433
  0
LINE
  8
0
 10
2.22247
 20
26.4433
 11
2.29495
 21
26.325
  0
LINE
  8
0
 10
2.29495
 20
26.325
 11
2.36116
 21
26.2031
  0
LINE
  8
0
 10
2.36116
 20
26.2031
 11
2.42088
 21
26.0779
  0
LINE
  8
0
 10
2.42088
 20
26.0779
 11
2.47398
 21
25.9497
  0
LINE
  8
0
 10
2.47398
 20
25.9497
 11
2.52029
 21
25.8189
  0
LINE
  8
0
 10
2.52029
 20
25.8189
 11
2.55969
 21
25.6859
  0
LINE
  8
0
 10
2.55969
 20
25.6859
 11
2.59209
 21
25.551
  0
LINE
  8
0
 10
2.59209
 20
25.551
 11
2.61737
 21
25.4146
  0
LINE
  8
0
 10
2.61737
 20
25.4146
 11
2.63548
 21
25.277
  0
LINE
  8
0
 10
2.63548
 20
25.277
 11
2.64636
 21
25.1387
  0
LINE
  8
0
 10
2.64636
 20
25.1387
 11
2.64999
 21
25
  0
LINE
  8
0
 10
2.64999
 20
25
 11
2.64636
 21
24.8613
  0
LINE
  8
0
 10
2.64636
 20
24.8613
 11
2.63548
 21
24.723
  0
LINE
  8
0
 10
2.63548
 20
24.723
 11
2.61737
 21
24.5854
  0
LINE
  8
0
 10
2.61737
 20
24.5854
 11
2.59209
 21
24.449
  0
LINE
  8
0
 10
2.59209
 20
24.449
 11
2.55969
 21
24.3141
  0
LINE
  8
0
 10
2.55969
 20
24.3141
 11
2.52029
 21
24.1811
  0
LINE
  8
0
 10
2.52029
 20
24.1811
 11
2.47398
 21
24.0503
  0
LINE
  8
0
 10
2.47398
 20
24.0503
 11
2.42088
 21
23.9221
  0
LINE
  8
0
 10
2.42088
 20
23.9221
 11
2.36116
 21
23.7969
  0
LINE
  8
0
 10
2.36116
 20
23.7969
 11
2.29495
 21
23.675
  0
LINE
  8
0
 10
2.29495
 20
23.675
 11
2.22247
 21
23.5567
  0
LINE
  8
0
 10
2.22247
 20
23.5567
 11
2.14389
 21
23.4424
  0
LINE
  8
0
 10
2.14389
 20
23.4424
 11
2.05943
 21
23.3323
  0
LINE
  8
0
 10
2.05943
 20
23.3323
 11
1.96933
 21
23.2268
  0
LINE
  8
0
 10
1.96933
 20
23.2268
 11
1.87383
 21
23.1262
  0
LINE
  8
0
 10
1.87383
 20
23.1262
 11
1.77319
 21
23.0307
  0
LINE
  8
0
 10
1.77319
 20
23.0307
 11
1.66769
 21
22.9406
  0
LINE
  8
0
 10
1.66769
 20
22.9406
 11
1.55762
 21
22.8561
  0
LINE
  8
0
 10
1.55762
 20
22.8561
 11
1.44328
 21
22.7775
  0
LINE
  8
0
 10
1.44328
 20
22.7775
 11
1.325
 21
22.705
  0
LINE
  8
0
 10
1.325
 20
22.705
 11
1.20306
 21
22.6388
  0
LINE
  8
0
 10
1.20306
 20
22.6388
 11
1.07785
 21
22.5791
  0
LINE
  8
0
 10
1.07785
 20
22.5791
 11
0.949661
 21
22.526
  0
LINE
  8
0
 10
0.949661
 20
22.526
 11
0.818893
 21
22.4797
  0
LINE
  8
0
 10
0.818893
 20
22.4797
 11
0.685867
 21
22.4403
  0
LINE
  8
0
 10
0.685867
 20
22.4403
 11
0.550964
 21
22.4079
  0
LINE
  8
0
 10
0.550964
 20
22.4079
 11
0.414551
 21
22.3826
  0
LINE
  8
0
 10
0.414551
 20
22.3826
 11
0.276993
 21
22.3645
  0
LINE
  8
0
 10
0.276993
 20
22.3645
 11
0.138687
 21
22.3536
  0
LINE
  8
0
 10
0.138687
 20
22.3536
 11
0
 21
22.35
  0
LINE
  8
0
 10
0
 20
22.35
 11
-0.138687
 21
22.3536
  0
LINE
  8
0
 10
-1.04671
 20
-19.9726
 11
-2.09056
 21
-19.8904
  0
LINE
  8
0
 10
-2.09056
 20
-19.8904
 11
-3.12868
 21
-19.7538
  0
LINE
  8
0
 10
-3.12868
 20
-19.7538
 11
-4.15823
 21
-19.5629
  0
LINE
  8
0
 10
-4.15823
 20
-19.5629
 11
-5.17638
 21
-19.3185
  0
LINE
  8
0
 10
-5.17638
 20
-19.3185
 11
-6.18033
 21
-19.0211
  0
LINE
  8
0
 10
-6.18033
 20
-19.0211
 11
-7.16736
 21
-18.6716
  0
LINE
  8
0
 10
-7.16736
 20
-18.6716
 11
-8.13472
 21
-18.2709
  0
LINE
  8
0
 10
-8.13472
 20
-18.2709
 11
-9.0798
 21
-17.8201
  0
LINE
  8
0
 10
-9.0798
 20
-17.8201
 11
-10
 21
-17.3205
  0
LINE
  8
0
 10
-10
 20
-17.3205
 11
-10.8928
 21
-16.7734
  0
LINE
  8
0
 10
-10.8928
 20
-16.7734
 11
-11.7557
 21
-16.1803
  0
LINE
  8
0
 10
-11.7557
 20
-16.1803
 11
-12.5864
 21
-15.5429
  0
LINE
  8
0
 10
-12.5864
 20
-15.5429
 11
-13.3826
 21
-14.8629
  0
LINE
  8
0
 10
-13.3826
 20
-14.8629
 11
-14.1421
 21
-14.1421
  0
LINE
  8
0
 10
-14.1421
 20
-14.1421
 11
-14.8629
 21
-13.3826
  0
LINE
  8
0
 10
-14.8629
 20
-13.3826
 11
-15.5429
 21
-12.5864
  0
LINE
  8
0
 10
-15.5429
 20
-12.5864
 11
-16.1803
 21
-11.7557
  0
LINE
  8
0
 10
-16.1803
 20
-11.7557
 11
-16.7734
 21
-10.8928
  0
LINE
  8
0
 10
-16.7734
 20
-10.8928
 11
-17.3205
 21
-9.99998
  0
LINE
  8
0
 10
-17.3205
 20
-9.99998
 11
-17.8201
 21
-9.0798
  0
LINE
  8
0
 10
-17.8201
 20
-9.0798
 11
-18.2709
 21
-8.13472
  0
LINE
  8
0
 10
-18.2709
 20
-8.13472
 11
-18.6716
 21
-7.16736
  0
LINE
  8
0
 10
-18.6716
 20
-7.16736
 11
-19.0211
 21
-6.18033
  0
LINE
  8
0
 10
-19.0211
 20
-6.18033
 11
-19.3185
 21
-5.17638
  0
LINE
  8
0
 10
-19.3185
 20
-5.17638
 11
-19.5629
 21
-4.15823
  0
LINE
  8
0
 10
-19.5629
 20
-4.15823
 11
-19.7538
 21
-3.12868
  0
LINE
  8
0
 10
-19.7538
 20
-3.12868
 11
-19.8904
 21
-2.09056
  0
LINE
  8
0
 10
-19.8904
 20
-2.09056
 11
-19.9726
 21
-1.04671
  0
LINE
  8
0
 10
-19.9726
 20
-1.04671
 11
-20
 21
0
  0
LINE
  8
0
 10
-20
 20
0
 11
-19.9726
 21
1.04671
  0
LINE
  8
0
 10
-19.9726
 20
1.04671
 11
-19.8904
 21
2.09056
  0
LINE
  8
0
 10
-19.8904
 20
2.09056
 11
-19.7538
 21
3.12868
  0
LINE
  8
0
 10
-19.7538
 20
3.12868
 11
-19.5629
 21
4.15823
  0
LINE
  8
0
 10
-19.5629
 20
4.15823
 11
-19.3185
 21
5.17638
  0
LINE
  8
0
 10
-19.3185
 20
5.17638
 11
-19.0211
 21
6.18033
  0
LINE
  8
0
 10
-19.0211
 20
6.18033
 11
-18.6716
 21
7.16736
  0
LINE
  8
0
 10
-18.6716
 20
7.16736
 11
-18.2709
 21
8.13472
  0
LINE
  8
0
 10
-18.2709
 20
8.13472
 11
-17.8201
 21
9.0798
  0
LINE
  8
0
 10
-17.8201
 20
9.0798
 11
-17.3205
 21
9.99998
  0
LINE
  8
0
 10
-17.3205
 20
9.99998
 11
-16.7734
 21
10.8928
  0
LINE
  8
0
 10
-16.7734
 20
10.8928
 11
-16.1803
 21
11.7557
  0
LINE
  8
0
 10
-16.1803
 20
11.7557
 11
-15.5429
 21
12.5864
  0
LINE
  8
0
 10
-15.5429
 20
12.5864
 11
-14.8629
 21
13.3826
  0
LINE
  8
0
 10
-14.8629
 20
13.3826
 11
-14.1421
 21
14.1421
  0
LINE
  8
0
 10
-14.1421
 20
14.1421
 11
-13.3826
 21
14.8629
  0
LINE
  8
0
 10
-13.3826
 20
14.8629
 11
-12.5864
 21
15.5429
  0
LINE
  8
0
 10
-12.5864
 20
15.5429
 11
-11.7557
 21
16.1803
  0
LINE
  8
0
 10
-11.7557
 20
16.1803
 11
-10.8928
 21
16.7734
  0
LINE
  8
0
 10
-10.8928
 20
16.7734
 11
-9.99998
 21
17.3205
  0
LINE
  8
0
 10
-9.99998
 20
17.3205
 11
-9.0798
 21
17.8201
  0
LINE
  8
0
 10
-9.0798
 20
17.8201
 11
-8.13472
 21
18.2709
  0
LINE
  8
0
 10
-8.13472
 20
18.2709
 11
-7.16736
 21
18.6716
  0
LINE
  8
0
 10
-7.16736
 20
18.6716
 11
-6.18033
 21
19.0211
  0
LINE
  8
0
 10
-6.18033
 20
19.0211
 11
-5.17638
 21
19.3185
  0
LINE
  8
0
 10
-5.17638
 20
19.3185
 11
-4.15823
 21
19.5629
  0
LINE
  8
0
 10
-4.15823
 20
19.5629
 11
-3.12868
 21
19.7538
  0
LINE
  8
0
 10
-3.12868
 20
19.7538
 11
-2.09056
 21
19.8904
  0
LINE
  8
0
 10
-2.09056
 20
19.8904
 11
-1.04671
 21
19.9726
  0
LINE
  8
0
 10
-1.04671
 20
19.9726
 11
0
 21
20
  0
LINE
  8
0
 10
0
 20
20
 11
1.04671
 21
19.9726
  0
LINE
  8
0
 10
1.04671
 20
19.9726
 11
2.09056
 21
19.8904
  0
LINE
  8
0
 10
2.09056
 20
19.8904
 11
3.12868
 21
19.7538
  0
LINE
  8
0
 10
3.12868
 20
19.7538
 11
4.15823
 21
19.5629
  0
LINE
  8
0
 10
4.15823
 20
19.5629
 11
5.17638
 21
19.3185
  0
LINE
  8
0
 10
5.17638
 20
19.3185
 11
6.18033
 21
19.0211
  0
LINE
  8
0
 10
6.18033
 20
19.0211
 11
7.16736
 21
18.6716
  0
LINE
  8
0
 10
7.16736
 20
18.6716
 11
8.13472
 21
18.2709
  0
LINE
  8
0
 10
8.13472
 20
18.2709
 11
9.0798
 21
17.8201
  0
LINE
  8
0
 10
9.0798
 20
17.8201
 11
10
 21
17.3205
  0
LINE
  8
0
 10
10
 20
17.3205
 11
10.8928
 21
16.7734
  0
LINE
  8
0
 10
10.8928
 20
16.7734
 11
11.7557
 21
16.1803
  0
LINE
  8
0
 10
11.7557
 20
16.1803
 11
12.5864
 21
15.5429
  0
LINE
  8
0
 10
12.5864
 20
15.5429
 11
13.3826
 21
14.8629
  0
LINE
  8
0
 10
13.3826
 20
14.8629
 11
14.1421
 21
14.1421
  0
LINE
  8
0
 10
14.1421
 20
14.1421
 11
14.8629
 21
13.3826
  0
LINE
  8
0
 10
14.8629
 20
13.3826
 11
15.5429
 21
12.5864
  0
LINE
  8
0
 10
15.5429
 20
12.5864
 11
16.1803
 21
11.7557
  0
LINE
  8
0
 10
16.1803
 20
11.7557
 11
16.7734
 21
10.8928
  0
LINE
  8
0
 10
16.7734
 20
10.8928
 11
17.3205
 21
9.99998
  0
LINE
  8
0
 10
17.3205
 20
9.99998
 11
17.8201
 21
9.0798
  0
LINE
  8
0
 10
17.8201
 20
9.0798
 11
18.2709
 21
8.13472
  0
LINE
  8
0
 10
18.2709
 20
8.13472
 11
18.6716
 21
7.16736
  0
LINE
  8
0
 10
18.6716
 20
7.16736
 11
19.0211
 21
6.18033
  0
LINE
  8
0
 10
19.0211
 20
6.18033
 11
19.3185
 21
5.17638
  0
LINE
  8
0
 10
19.3185
 20
5.17638
 11
19.5629
 21
4.15823
  0
LINE
  8
0
 10
19.5629
 20
4.15823
 11
19.7538
 21
3.12868
  0
LINE
  8
0
 10
19.7538
 20
3.12868
 11
19.8904
 21
2.09056
  0
LINE
  8
0
 10
19.8904
 20
2.09056
 11
19.9726
 21
1.04671
  0
LINE
  8
0
 10
19.9726
 20
1.04671
 11
20
 21
0
  0
LINE
  8
0
 10
20
 20
0
 11
19.9726
 21
-1.04671
  0
LINE
  8
0
 10
19.9726
 20
-1.04671
 11
19.8904
 21
-2.09056
  0
LINE
  8
0
 10
19.8904
 20
-2.09056
 11
19.7538
 21
-3.12868
  0
LINE
  8
0
 10
19.7538
 20
-3.12868
 11
19.5629
 21
-4.15823
  0
LINE
  8
0
 10
19.5629
 20
-4.15823
 11
19.3185
 21
-5.17638
  0
LINE
  8
0
 10
19.3185
 20
-5.17638
 11
19.0211
 21
-6.18033
  0
LINE
  8
0
 10
19.0211
 20
-6.18033
 11
18.6716
 21
-7.16736
  0
LINE
  8
0
 10
18.6716
 20
-7.16736
 11
18.2709
 21
-8.13472
  0
LINE
  8
0
 10
18.2709
 20
-8.13472
 11
17.8201
 21
-9.0798
  0
LINE
  8
0
 10
17.8201
 20
-9.0798
 11
17.3205
 21
-9.99998
  0
LINE
  8
0
 10
17.3205
 20
-9.99998
 11
16.7734
 21
-10.8928
  0
LINE
  8
0
 10
16.7734
 20
-10.8928
 11
16.1803
 21
-11.7557
  0
LINE
  8
0
 10
16.1803
 20
-11.7557
 11
15.5429
 21
-12.5864
  0
LINE
  8
0
 10
15.5429
 20
-12.5864
 11
14.8629
 21
-13.3826
  0
LINE
  8
0
 10
14.8629
 20
-13.3826
 11
14.1421
 21
-14.1421
  0
LINE
  8
0
 10
14.1421
 20
-14.1421
 11
13.3826
 21
-14.8629
  0
LINE
  8
0
 10
13.3826
 20
-14.8629
 11
12.5864
 21
-15.5429
  0
LINE
  8
0
 10
12.5864
 20
-15.5429
 11
11.7557
 21
-16.1803
  0
LINE
  8
0
 10
11.7557
 20
-16.1803
 11
10.8928
 21
-16.7734
  0
LINE
  8
0
 10
10.8928
 20
-16.7734
 11
10
 21
-17.3205
  0
LINE
  8
0
 10
10
 20
-17.3205
 11
9.0798
 21
-17.8201
  0
LINE
  8
0
 10
9.0798
 20
-17.8201
 11
8.13472
 21
-18.2709
  0
LINE
  8
0
 10
8.13472
 20
-18.2709
 11
7.16736
 21
-18.6716
  0
LINE
  8
0
 10
7.16736
 20
-18.6716
 11
6.18033
 21
-19.0211
  0
LINE
  8
0
 10
6.18033
 20
-19.0211
 11
5.17638
 21
-19.3185
  0
LINE
  8
0
 10
5.17638
 20
-19.3185
 11
4.15823
 21
-19.5629
  0
LINE
  8
0
 10
4.15823
 20
-19.5629
 11
3.12868
 21
-19.7538
  0
LINE
  8
0
 10
3.12868
 20
-19.7538
 11
2.09056
 21
-19.8904
  0
LINE
  8
0
 10
2.09056
 20
-19.8904
 11
1.04671
 21
-19.9726
  0
LINE
  8
0
 10
1.04671
 20
-19.9726
 11
0
 21
-20
  0
LINE
  8
0
 10
0
 20
-20
 11
-1.04671
 21
-19.9726
  0
LINE
  8
0
 10
21.5119
 20
9.85362
 11
21.3736
 21
9.8645
  0
LINE
  8
0
 10
21.3736
 20
9.8645
 11
21.2361
 21
9.88261
  0
LINE
  8
0
 10
21.2361
 20
9.88261
 11
21.0997
 21
9.9079
  0
LINE
  8
0
 10
21.0997
 20
9.9079
 11
20.9648
 21
9.94029
  0
LINE
  8
0
 10
20.9648
 20
9.94029
 11
20.8317
 21
9.97969
  0
LINE
  8
0
 10
20.8317
 20
9.97969
 11
20.701
 21
10.026
  0
LINE
  8
0
 10
20.701
 20
10.026
 11
20.5728
 21
10.0791
  0
LINE
  8
0
 10
20.5728
 20
10.0791
 11
20.4476
 21
10.1388
  0
LINE
  8
0
 10
20.4476
 20
10.1388
 11
20.3256
 21
10.205
  0
LINE
  8
0
 10
20.3256
 20
10.205
 11
20.2073
 21
10.2775
  0
LINE
  8
0
 10
20.2073
 20
10.2775
 11
20.093
 21
10.3561
  0
LINE
  8
0
 10
20.093
 20
10.3561
 11
19.9829
 21
10.4406
  0
LINE
  8
0
 10
19.9829
 20
10.4406
 11
19.8774
 21
10.5307
  0
LINE
  8
0
 10
19.8774
 20
10.5307
 11
19.7768
 21
10.6262
  0
LINE
  8
0
 10
19.7768
 20
10.6262
 11
19.6813
 21
10.7268
  0
LINE
  8
0
 10
19.6813
 20
10.7268
 11
19.5912
 21
10.8323
  0
LINE
  8
0
 10
19.5912
 20
10.8323
 11
19.5067
 21
10.9424
  0
LINE
  8
0
 10
19.5067
 20
10.9424
 11
19.4281
 21
11.0567
  0
LINE
  8
0
 10
19.4281
 20
11.0567
 11
19.3557
 21
11.175
  0
LINE
  8
0
 10
19.3557
 20
11.175
 11
19.2895
 21
11.2969
  0
LINE
  8
0
 10
19.2895
 20
11.2969
 11
19.2297
 21
11.4221
  0
LINE
  8
0
 10
19.2297
 20
11.4221
 11
19.1766
 21
11.5503
  0
LINE
  8
0
 10
19.1766
 20
11.5503
 11
19.1303
 21
11.6811
  0
LINE
  8
0
 10
19.1303
 20
11.6811
 11
19.0909
 21
11.8141
  0
LINE
  8
0
 10
19.0909
 20
11.8141
 11
19.0585
 21
11.949
  0
LINE
  8
0
 10
19.0585
 20
11.949
 11
19.0332
 21
12.0854
  0
LINE
  8
0
 10
19.0332
 20
12.0854
 11
19.0152
 21
12.223
  0
LINE
  8
0
 10
19.0152
 20
12.223
 11
19.0043
 21
12.3613
  0
LINE
  8
0
 10
19.0043
 20
12.3613
 11
19.0006
 21
12.5
  0
LINE
  8
0
 10
19.0006
 20
12.5
 11
19.0043
 21
12.6387
  0
LINE
  8
0
 10
19.0043
 20
12.6387
 11
19.0152
 21
12.777
  0
LINE
  8
0
 10
19.0152
 20
12.777
 11
19.0332
 21
12.9146
  0
LINE
  8
0
 10
19.0332
 20
12.9146
 11
19.0585
 21
13.051
  0
LINE
  8
0
 10
19.0585
 20
13.051
 11
19.0909
 21
13.1859
  0
LINE
  8
0
 10
19.0909
 20
13.1859
 11
19.1303
 21
13.3189
  0
LINE
  8
0
 10
19.1303
 20
13.3189
 11
19.1766
 21
13.4497
  0
LINE
  8
0
 10
19.1766
 20
13.4497
 11
19.2297
 21
13.5779
  0
LINE
  8
0
 10
19.2297
 20
13.5779
 11
19.2895
 21
13.7031
  0
LINE
  8
0
 10
19.2895
 20
13.7031
 11
19.3557
 21
13.825
  0
LINE
  8
0
 10
19.3557
 20
13.825
 11
19.4281
 21
13.9433
  0
LINE
  8
0
 10
19.4281
 20
13.9433
 11
19.5067
 21
14.0576
  0
LINE
  8
0
 10
19.5067
 20
14.0576
 11
19.5912
 21
14.1677
  0
LINE
  8
0
 10
19.5912
 20
14.1677
 11
19.6813
 21
14.2732
  0
LINE
  8
0
 10
19.6813
 20
14.2732
 11
19.7768
 21
14.3738
  0
LINE
  8
0
 10
19.7768
 20
14.3738
 11
19.8774
 21
14.4693
  0
LINE
  8
0
 10
19.8774
 20
14.4693
 11
19.9829
 21
14.5594
  0
LINE
  8
0
 10
19.9829
 20
14.5594
 11
20.093
 21
14.6439
  0
LINE
  8
0
 10
20.093
 20
14.6439
 11
20.2073
 21
14.7225
  0
LINE
  8
0
 10
20.2073
 20
14.7225
 11
20.3256
 21
14.795
  0
LINE
  8
0
 10
20.3256
 20
14.795
 11
20.4476
 21
14.8612
  0
LINE
  8
0
 10
20.4476
 20
14.8612
 11
20.5728
 21
14.9209
  0
LINE
  8
0
 10
20.5728
 20
14.9209
 11
20.701
 21
14.974
  0
LINE
  8
0
 10
20.701
 20
14.974
 11
20.8317
 21
15.0203
  0
LINE
  8
0
 10
20.8317
 20
15.0203
 11
20.9648
 21
15.0597
  0
LINE
  8
0
 10
20.9648
 20
15.0597
 11
21.0997
 21
15.0921
  0
LINE
  8
0
 10
21.0997
 20
15.0921
 11
21.2361
 21
15.1174
  0
LINE
  8
0
 10
21.2361
 20
15.1174
 11
21.3736
 21
15.1355
  0
LINE
  8
0
 10
21.3736
 20
15.1355
 11
21.5119
 21
15.1464
  0
LINE
  8
0
 10
21.5119
 20
15.1464
 11
21.6506
 21
15.15
  0
LINE
  8
0
 10
21.6506
 20
15.15
 11
21.7893
 21
15.1464
  0
LINE
  8
0
 10
21.7893
 20
15.1464
 11
21.9276
 21
15.1355
  0
LINE
  8
0
 10
21.9276
 20
15.1355
 11
22.0652
 21
15.1174
  0
LINE
  8
0
 10
22.0652
 20
15.1174
 11
22.2016
 21
15.0921
  0
LINE
  8
0
 10
22.2016
 20
15.0921
 11
22.3365
 21
15.0597
  0
LINE
  8
0
 10
22.3365
 20
15.0597
 11
22.4695
 21
15.0203
  0
LINE
  8
0
 10
22.4695
 20
15.0203
 11
22.6003
 21
14.974
  0
LINE
  8
0
 10
22.6003
 20
14.974
 11
22.7285
 21
14.9209
  0
LINE
  8
0
 10
22.7285
 20
14.9209
 11
22.8537
 21
14.8612
  0
LINE
  8
0
 10
22.8537
 20
14.8612
 11
22.9756
 21
14.795
  0
LINE
  8
0
 10
22.9756
 20
14.795
 11
23.0939
 21
14.7225
  0
LINE
  8
0
 10
23.0939
 20
14.7225
 11
23.2083
 21
14.6439
  0
LINE
  8
0
 10
23.2083
 20
14.6439
 11
23.3183
 21
14.5594
  0
LINE
  8
0
 10
23.3183
 20
14.5594
 11
23.4238
 21
14.4693
  0
LINE
  8
0
 10
23.4238
 20
14.4693
 11
23.5245
 21
14.3738
  0
LINE
  8
0
 10
23.5245
 20
14.3738
 11
23.62
 21
14.2732
  0
LINE
  8
0
 10
23.62
 20
14.2732
 11
23.7101
 21
14.1677
  0
LINE
  8
0
 10
23.7101
 20
14.1677
 11
23.7945
 21
14.0576
  0
LINE
  8
0
 10
23.7945
 20
14.0576
 11
23.8731
 21
13.9433
  0
LINE
  8
0
 10
23.8731
 20
13.9433
 11
23.9456
 21
13.825
  0
LINE
  8
0
 10
23.9456
 20
13.825
 11
24.0118
 21
13.7031
  0
LINE
  8
0
 10
24.0118
 20
13.7031
 11
24.0715
 21
13.5779
  0
LINE
  8
0
 10
24.0715
 20
13.5779
 11
24.1246
 21
13.4497
  0
LINE
  8
0
 10
24.1246
 20
13.4497
 11
24.1709
 21
13.3189
  0
LINE
  8
0
 10
24.1709
 20
13.3189
 11
24.2103
 21
13.1859
  0
LINE
  8
0
 10
24.2103
 20
13.1859
 11
24.2427
 21
13.051
  0
LINE
  8
0
 10
24.2427
 20
13.051
 11
24.268
 21
12.9146
  0
LINE
  8
0
 10
24.268
 20
12.9146
 11
24.2861
 21
12.777
  0
LINE
  8
0
 10
24.2861
 20
12.777
 11
24.297
 21
12.6387
  0
LINE
  8
0
 10
24.297
 20
12.6387
 11
24.3006
 21
12.5
  0
LINE
  8
0
 10
24.3006
 20
12.5
 11
24.297
 21
12.3613
  0
LINE
  8
0
 10
24.297
 20
12.3613
 11
24.2861
 21
12.223
  0
LINE
  8
0
 10
24.2861
 20
12.223
 11
24.268
 21
12.0854
  0
LINE
  8
0
 10
24.268
 20
12.0854
 11
24.2427
 21
11.949
  0
LINE
  8
0
 10
24.2427
 20
11.949
 11
24.2103
 21
11.8141
  0
LINE
  8
0
 10
24.2103
 20
11.8141
 11
24.1709
 21
11.6811
  0
LINE
  8
0
 10
24.1709
 20
11.6811
 11
24.1246
 21
11.5503
  0
LINE
  8
0
 10
24.1246
 20
11.5503
 11
24.0715
 21
11.4221
  0
LINE
  8
0
 10
24.0715
 20
11.4221
 11
24.0118
 21
11.2969
  0
LINE
  8
0
 10
24.0118
 20
11.2969
 11
23.9456
 21
11.175
  0
LINE
  8
0
 10
23.9456
 20
11.175
 11
23.8731
 21
11.0567
  0
LINE
  8
0
 10
23.8731
 20
11.0567
 11
23.7945
 21
10.9424
  0
LINE
  8
0
 10
23.7945
 20
10.9424
 11
23.7101
 21
10.8323
  0
LINE
  8
0
 10
23.7101
 20
10.8323
 11
23.62
 21
10.7268
  0
LINE
  8
0
 10
23.62
 20
10.7268
 11
23.5245
 21
10.6262
  0
LINE
  8
0
 10
23.5245
 20
10.6262
 11
23.4238
 21
10.5307
  0
LINE
  8
0
 10
23.4238
 20
10.5307
 11
23.3183
 21
10.4406
  0
LINE
  8
0
 10
23.3183
 20
10.4406
 11
23.2083
 21
10.3561
  0
LINE
  8
0
 10
23.2083
 20
10.3561
 11
23.0939
 21
10.2775
  0
LINE
  8
0
 10
23.0939
 20
10.2775
 11
22.9756
 21
10.205
  0
LINE
  8
0
 10
22.9756
 20
10.205
 11
22.8537
 21
10.1388
  0
LINE
  8
0
 10
22.8537
 20
10.1388
 11
22.7285
 21
10.0791
  0
LINE
  8
0
 10
22.7285
 20
10.0791
 11
22.6003
 21
10.026
  0
LINE
  8
0
 10
22.6003
 20
10.026
 11
22.4695
 21
9.97969
  0
LINE
  8
0
 10
22.4695
 20
9.97969
 11
22.3365
 21
9.94029
  0
LINE
  8
0
 10
22.3365
 20
9.94029
 11
22.2016
 21
9.9079
  0
LINE
  8
0
 10
22.2016
 20
9.9079
 11
22.0652
 21
9.88261
  0
LINE
  8
0
 10
22.0652
 20
9.88261
 11
21.9276
 21
9.8645
  0
LINE
  8
0
 10
21.9276
 20
9.8645
 11
21.7893
 21
9.85362
  0
LINE
  8
0
 10
21.7893
 20
9.85362
 11
21.6506
 21
9.84999
  0
LINE
  8
0
 10
21.6506
 20
9.84999
 11
21.5119
 21
9.85362
  0
LINE
  8
0
 10
-21.7893
 20
9.85362
 11
-21.9276
 21
9.8645
  0
LINE
  8
0
 10
-21.9276
 20
9.8645
 11
-22.0652
 21
9.88261
  0
LINE
  8
0
 10
-22.0652
 20
9.88261
 11
-22.2016
 21
9.9079
  0
LINE
  8
0
 10
-22.2016
 20
9.9079
 11
-22.3365
 21
9.94029
  0
LINE
  8
0
 10
-22.3365
 20
9.94029
 11
-22.4695
 21
9.97969
  0
LINE
  8
0
 10
-22.4695
 20
9.97969
 11
-22.6003
 21
10.026
  0
LINE
  8
0
 10
-22.6003
 20
10.026
 11
-22.7285
 21
10.0791
  0
LINE
  8
0
 10
-22.7285
 20
10.0791
 11
-22.8537
 21
10.1388
  0
LINE
  8
0
 10
-22.8537
 20
10.1388
 11
-22.9756
 21
10.205
  0
LINE
  8
0
 10
-22.9756
 20
10.205
 11
-23.0939
 21
10.2775
  0
LINE
  8
0
 10
-23.0939
 20
10.2775
 11
-23.2083
 21
10.3561
  0
LINE
  8
0
 10
-23.2083
 20
10.3561
 11
-23.3183
 21
10.4406
  0
LINE
  8
0
 10
-23.3183
 20
10.4406
 11
-23.4238
 21
10.5307
  0
LINE
  8
0
 10
-23.4238
 20
10.5307
 11
-23.5245
 21
10.6262
  0
LINE
  8
0
 10
-23.5245
 20
10.6262
 11
-23.62
 21
10.7268
  0
LINE
  8
0
 10
-23.62
 20
10.7268
 11
-23.7101
 21
10.8323
  0
LINE
  8
0
 10
-23.7101
 20
10.8323
 11
-23.7945
 21
10.9424
  0
LINE
  8
0
 10
-23.7945
 20
10.9424
 11
-23.8731
 21
11.0567
  0
LINE
  8
0
 10
-23.8731
 20
11.0567
 11
-23.9456
 21
11.175
  0
LINE
  8
0
 10
-23.9456
 20
11.175
 11
-24.0118
 21
11.2969
  0
LINE
  8
0
 10
-24.0118
 20
11.2969
 11
-24.0715
 21
11.4221
  0
LINE
  8
0
 10
-24.0715
 20
11.4221
 11
-24.1246
 21
11.5503
  0
LINE
  8
0
 10
-24.1246
 20
11.5503
 11
-24.1709
 21
11.6811
  0
LINE
  8
0
 10
-24.1709
 20
11.6811
 11
-24.2103
 21
11.8141
  0
LINE
  8
0
 10
-24.2103
 20
11.8141
 11
-24.2427
 21
11.949
  0
LINE
  8
0
 10
-24.2427
 20
11.949
 11
-24.268
 21
12.0854
  0
LINE
  8
0
 10
-24.268
 20
12.0854
 11
-24.2861
 21
12.223
  0
LINE
  8
0
 10
-24.2861
 20
12.223
 11
-24.297
 21
12.3613
  0
LINE
  8
0
 10
-24.297
 20
12.3613
 11
-24.3006
 21
12.5
  0
LINE
  8
0
 10
-24.3006
 20
12.5
 11
-24.297
 21
12.6387
  0
LINE
  8
0
 10
-24.297
 20
12.6387
 11
-24.2861
 21
12.777
  0
LINE
  8
0
 10
-24.2861
 20
12.777
 11
-24.268
 21
12.9146
  0
LINE
  8
0
 10
-24.268
 20
12.9146
 11
-24.2427
 21
13.051
  0
LINE
  8
0
 10
-24.2427
 20
13.051
 11
-24.2103
 21
13.1859
  0
LINE
  8
0
 10
-24.2103
 20
13.1859
 11
-24.1709
 21
13.3189
  0
LINE
  8
0
 10
-24.1709
 20
13.3189
 11
-24.1246
 21
13.4497
  0
LINE
  8
0
 10
-24.1246
 20
13.4497
 11
-24.0715
 21
13.5779
  0
LINE
  8
0
 10
-24.0715
 20
13.5779
 11
-24.0118
 21
13.7031
  0
LINE
  8
0
 10
-24.0118
 20
13.7031
 11
-23.9456
 21
13.825
  0
LINE
  8
0
 10
-23.9456
 20
13.825
 11
-23.8731
 21
13.9433
  0
LINE
  8
0
 10
-23.8731
 20
13.9433
 11
-23.7945
 21
14.0576
  0
LINE
  8
0
 10
-23.7945
 20
14.0576
 11
-23.7101
 21
14.1677
  0
LINE
  8
0
 10
-23.7101
 20
14.1677
 11
-23.62
 21
14.2732
  0
LINE
  8
0
 10
-23.62
 20
14.2732
 11
-23.5245
 21
14.3738
  0
LINE
  8
0
 10
-23.5245
 20
14.3738
 11
-23.4238
 21
14.4693
  0
LINE
  8
0
 10
-23.4238
 20
14.4693
 11
-23.3183
 21
14.5594
  0
LINE
  8
0
 10
-23.3183
 20
14.5594
 11
-23.2083
 21
14.6439
  0
LINE
  8
0
 10
-23.2083
 20
14.6439
 11
-23.0939
 21
14.7225
  0
LINE
  8
0
 10
-23.0939
 20
14.7225
 11
-22.9756
 21
14.795
  0
LINE
  8
0
 10
-22.9756
 20
14.795
 11
-22.8537
 21
14.8612
  0
LINE
  8
0
 10
-22.8537
 20
14.8612
 11
-22.7285
 21
14.9209
  0
LINE
  8
0
 10
-22.7285
 20
14.9209
 11
-22.6003
 21
14.974
  0
LINE
  8
0
 10
-22.6003
 20
14.974
 11
-22.4695
 21
15.0203
  0
LINE
  8
0
 10
-22.4695
 20
15.0203
 11
-22.3365
 21
15.0597
  0
LINE
  8
0
 10
-22.3365
 20
15.0597
 11
-22.2016
 21
15.0921
  0
LINE
  8
0
 10
-22.2016
 20
15.0921
 11
-22.0652
 21
15.1174
  0
LINE
  8
0
 10
-22.0652
 20
15.1174
 11
-21.9276
 21
15.1355
  0
LINE
  8
0
 10
-21.9276
 20
15.1355
 11
-21.7893
 21
15.1464
  0
LINE
  8
0
 10
-21.7893
 20
15.1464
 11
-21.6506
 21
15.15
  0
LINE
  8
0
 10
-21.6506
 20
15.15
 11
-21.5119
 21
15.1464
  0
LINE
  8
0
 10
-21.5119
 20
15.1464
 11
-21.3736
 21
15.1355
  0
LINE
  8
0
 10
-21.3736
 20
15.1355
 11
-21.2361
 21
15.1174
  0
LINE
  8
0
 10
-21.2361
 20
15.1174
 11
-21.0997
 21
15.0921
  0
LINE
  8
0
 10
-21.0997
 20
15.0921
 11
-20.9648
 21
15.0597
  0
LINE
  8
0
 10
-20.9648
 20
15.0597
 11
-20.8317
 21
15.0203
  0
LINE
  8
0
 10
-20.8317
 20
15.0203
 11
-20.701
 21
14.974
  0
LINE
  8
0
 10
-20.701
 20
14.974
 11
-20.5728
 21
14.9209
  0
LINE
  8
0
 10
-20.5728
 20
14.9209
 11
-20.4476
 21
14.8612
  0
LINE
  8
0
 10
-20.4476
 20
14.8612
 11
-20.3256
 21
14.795
  0
LINE
  8
0
 10
-20.3256
 20
14.795
 11
-20.2073
 21
14.7225
  0
LINE
  8
0
 10
-20.2073
 20
14.7225
 11
-20.093
 21
14.6439
  0
LINE
  8
0
 10
-20.093
 20
14.6439
 11
-19.9829
 21
14.5594
  0
LINE
  8
0
 10
-19.9829
 20
14.5594
 11
-19.8774
 21
14.4693
  0
LINE
  8
0
 10
-19.8774
 20
14.4693
 11
-19.7768
 21
14.3738
  0
LINE
  8
0
 10
-19.7768
 20
14.3738
 11
-19.6813
 21
14.2732
  0
LINE
  8
0
 10
-19.6813
 20
14.2732
 11
-19.5912
 21
14.1677
  0
LINE
  8
0
 10
-19.5912
 20
14.1677
 11
-19.5067
 21
14.0576
  0
LINE
  8
0
 10
-19.5067
 20
14.0576
 11
-19.4281
 21
13.9433
  0
LINE
  8
0
 10
-19.4281
 20
13.9433
 11
-19.3557
 21
13.825
  0
LINE
  8
0
 10
-19.3557
 20
13.825
 11
-19.2895
 21
13.7031
  0
LINE
  8
0
 10
-19.2895
 20
13.7031
 11
-19.2297
 21
13.5779
  0
LINE
  8
0
 10
-19.2297
 20
13.5779
 11
-19.1766
 21
13.4497
  0
LINE
  8
0
 10
-19.1766
 20
13.4497
 11
-19.1303
 21
13.3189
  0
LINE
  8
0
 10
-19.1303
 20
13.3189
 11
-19.0909
 21
13.1859
  0
LINE
  8
0
 10
-19.0909
 20
13.1859
 11
-19.0585
 21
13.051
  0
LINE
  8
0
 10
-19.0585
 20
13.051
 11
-19.0332
 21
12.9146
  0
LINE
  8
0
 10
-19.0332
 20
12.9146
 11
-19.0152
 21
12.777
  0
LINE
  8
0
 10
-19.0152
 20
12.777
 11
-19.0043
 21
12.6387
  0
LINE
  8
0
 10
-19.0043
 20
12.6387
 11
-19.0006
 21
12.5
  0
LINE
  8
0
 10
-19.0006
 20
12.5
 11
-19.0043
 21
12.3613
  0
LINE
  8
0
 10
-19.0043
 20
12.3613
 11
-19.0152
 21
12.223
  0
LINE
  8
0
 10
-19.0152
 20
12.223
 11
-19.0332
 21
12.0854
  0
LINE
  8
0
 10
-19.0332
 20
12.0854
 11
-19.0585
 21
11.949
  0
LINE
  8
0
 10
-19.0585
 20
11.949
 11
-19.0909
 21
11.8141
  0
LINE
  8
0
 10
-19.0909
 20
11.8141
 11
-19.1303
 21
11.6811
  0
LINE
  8
0
 10
-19.1303
 20
11.6811
 11
-19.1766
 21
11.5503
  0
LINE
  8
0
 10
-19.1766
 20
11.5503
 11
-19.2297
 21
11.4221
  0
LINE
  8
0
 10
-19.2297
 20
11.4221
 11
-19.2895
 21
11.2969
  0
LINE
  8
0
 10
-19.2895
 20
11.2969
 11
-19.3557
 21
11.175
  0
LINE
  8
0
 10
-19.3557
 20
11.175
 11
-19.4281
 21
11.0567
  0
LINE
  8
0
 10
-19.4281
 20
11.0567
 11
-19.5067
 21
10.9424
  0
LINE
  8
0
 10
-19.5067
 20
10.9424
 11
-19.5912
 21
10.8323
  0
LINE
  8
0
 10
-19.5912
 20
10.8323
 11
-19.6813
 21
10.7268
  0
LINE
  8
0
 10
-19.6813
 20
10.7268
 11
-19.7768
 21
10.6262
  0
LINE
  8
0
 10
-19.7768
 20
10.6262
 11
-19.8774
 21
10.5307
  0
LINE
  8
0
 10
-19.8774
 20
10.5307
 11
-19.9829
 21
10.4406
  0
LINE
  8
0
 10
-19.9829
 20
10.4406
 11
-20.093
 21
10.3561
  0
LINE
  8
0
 10
-20.093
 20
10.3561
 11
-20.2073
 21
10.2775
  0
LINE
  8
0
 10
-20.2073
 20
10.2775
 11
-20.3256
 21
10.205
  0
LINE
  8
0
 10
-20.3256
 20
10.205
 11
-20.4476
 21
10.1388
  0
LINE
  8
0
 10
-20.4476
 20
10.1388
 11
-20.5728
 21
10.0791
  0
LINE
  8
0
 10
-20.5728
 20
10.0791
 11
-20.701
 21
10.026
  0
LINE
  8
0
 10
-20.701
 20
10.026
 11
-20.8317
 21
9.97969
  0
LINE
  8
0
 10
-20.8317
 20
9.97969
 11
-20.9648
 21
9.94029
  0
LINE
  8
0
 10
-20.9648
 20
9.94029
 11
-21.0997
 21
9.9079
  0
LINE
  8
0
 10
-21.0997
 20
9.9079
 11
-21.2361
 21
9.88261
  0
LINE
  8
0
 10
-21.2361
 20
9.88261
 11
-21.3736
 21
9.8645
  0
LINE
  8
0
 10
-21.3736
 20
9.8645
 11
-21.5119
 21
9.85362
  0
LINE
  8
0
 10
-21.5119
 20
9.85362
 11
-21.6506
 21
9.84999
  0
LINE
  8
0
 10
-21.6506
 20
9.84999
 11
-21.7893
 21
9.85362
  0
LINE
  8
0
 10
21.5119
 20
-15.1464
 11
21.3736
 21
-15.1355
  0
LINE
  8
0
 10
21.3736
 20
-15.1355
 11
21.2361
 21
-15.1174
  0
LINE
  8
0
 10
21.2361
 20
-15.1174
 11
21.0997
 21
-15.0921
  0
LINE
  8
0
 10
21.0997
 20
-15.0921
 11
20.9648
 21
-15.0597
  0
LINE
  8
0
 10
20.9648
 20
-15.0597
 11
20.8317
 21
-15.0203
  0
LINE
  8
0
 10
20.8317
 20
-15.0203
 11
20.701
 21
-14.974
  0
LINE
  8
0
 10
20.701
 20
-14.974
 11
20.5728
 21
-14.9209
  0
LINE
  8
0
 10
20.5728
 20
-14.9209
 11
20.4476
 21
-14.8612
  0
LINE
  8
0
 10
20.4476
 20
-14.8612
 11
20.3256
 21
-14.795
  0
LINE
  8
0
 10
20.3256
 20
-14.795
 11
20.2073
 21
-14.7225
  0
LINE
  8
0
 10
20.2073
 20
-14.7225
 11
20.093
 21
-14.6439
  0
LINE
  8
0
 10
20.093
 20
-14.6439
 11
19.9829
 21
-14.5594
  0
LINE
  8
0
 10
19.9829
 20
-14.5594
 11
19.8774
 21
-14.4693
  0
LINE
  8
0
 10
19.8774
 20
-14.4693
 11
19.7768
 21
-14.3738
  0
LINE
  8
0
 10
19.7768
 20
-14.3738
 11
19.6813
 21
-14.2732
  0
LINE
  8
0
 10
19.6813
 20
-14.2732
 11
19.5912
 21
-14.1677
  0
LINE
  8
0
 10
19.5912
 20
-14.1677
 11
19.5067
 21
-14.0576
  0
LINE
  8
0
 10
19.5067
 20
-14.0576
 11
19.4281
 21
-13.9433
  0
LINE
  8
0
 10
19.4281
 20
-13.9433
 11
19.3557
 21
-13.825
  0
LINE
  8
0
 10
19.3557
 20
-13.825
 11
19.2895
 21
-13.7031
  0
LINE
  8
0
 10
19.2895
 20
-13.7031
 11
19.2297
 21
-13.5779
  0
LINE
  8
0
 10
19.2297
 20
-13.5779
 11
19.1766
 21
-13.4497
  0
LINE
  8
0
 10
19.1766
 20
-13.4497
 11
19.1303
 21
-13.3189
  0
LINE
  8
0
 10
19.1303
 20
-13.3189
 11
19.0909
 21
-13.1859
  0
LINE
  8
0
 10
19.0909
 20
-13.1859
 11
19.0585
 21
-13.051
  0
LINE
  8
0
 10
19.0585
 20
-13.051
 11
19.0332
 21
-12.9146
  0
LINE
  8
0
 10
19.0332
 20
-12.9146
 11
19.0152
 21
-12.777
  0
LINE
  8
0
 10
19.0152
 20
-12.777
 11
19.0043
 21
-12.6387
  0
LINE
  8
0
 10
19.0043
 20
-12.6387
 11
19.0006
 21
-12.5
  0
LINE
  8
0
 10
19.0006
 20
-12.5
 11
19.0043
 21
-12.3613
  0
LINE
  8
0
 10
19.0043
 20
-12.3613
 11
19.0152
 21
-12.223
  0
LINE
  8
0
 10
19.0152
 20
-12.223
 11
19.0332
 21
-12.0854
  0
LINE
  8
0
 10
19.0332
 20
-12.0854
 11
19.0585
 21
-11.949
  0
LINE
  8
0
 10
19.0585
 20
-11.949
 11
19.0909
 21
-11.8141
  0
LINE
  8
0
 10
19.0909
 20
-11.8141
 11
19.1303
 21
-11.6811
  0
LINE
  8
0
 10
19.1303
 20
-11.6811
 11
19.1766
 21
-11.5503
  0
LINE
  8
0
 10
19.1766
 20
-11.5503
 11
19.2297
 21
-11.4221
  0
LINE
  8
0
 10
19.2297
 20
-11.4221
 11
19.2895
 21
-11.2969
  0
LINE
  8
0
 10
19.2895
 20
-11.2969
 11
19.3557
 21
-11.175
  0
LINE
  8
0
 10
19.3557
 20
-11.175
 11
19.4281
 21
-11.0567
  0
LINE
  8
0
 10
19.4281
 20
-11.0567
 11
19.5067
 21
-10.9424
  0
LINE
  8
0
 10
19.5067
 20
-10.9424
 11
19.5912
 21
-10.8323
  0
LINE
  8
0
 10
19.5912
 20
-10.8323
 11
19.6813
 21
-10.7268
  0
LINE
  8
0
 10
19.6813
 20
-10.7268
 11
19.7768
 21
-10.6262
  0
LINE
  8
0
 10
19.7768
 20
-10.6262
 11
19.8774
 21
-10.5307
  0
LINE
  8
0
 10
19.8774
 20
-10.5307
 11
19.9829
 21
-10.4406
  0
LINE
  8
0
 10
19.9829
 20
-10.4406
 11
20.093
 21
-10.3561
  0
LINE
  8
0
 10
20.093
 20
-10.3561
 11
20.2073
 21
-10.2775
  0
LINE
  8
0
 10
20.2073
 20
-10.2775
 11
20.3256
 21
-10.205
  0
LINE
  8
0
 10
20.3256
 20
-10.205
 11
20.4476
 21
-10.1388
  0
LINE
  8
0
 10
20.4476
 20
-10.1388
 11
20.5728
 21
-10.0791
  0
LINE
  8
0
 10
20.5728
 20
-10.0791
 11
20.701
 21
-10.026
  0
LINE
  8
0
 10
20.701
 20
-10.026
 11
20.8317
 21
-9.97969
  0
LINE
  8
0
 10
20.8317
 20
-9.97969
 11
20.9648
 21
-9.94029
  0
LINE
  8
0
 10
20.9648
 20
-9.94029
 11
21.0997
 21
-9.9079
  0
LINE
  8
0
 10
21.0997
 20
-9.9079
 11
21.2361
 21
-9.88261
  0
LINE
  8
0
 10
21.2361
 20
-9.88261
 11
21.3736
 21
-9.8645
  0
LINE
  8
0
 10
21.3736
 20
-9.8645
 11
21.5119
 21
-9.85362
  0
LINE
  8
0
 10
21.5119
 20
-9.85362
 11
21.6506
 21
-9.84999
  0
LINE
  8
0
 10
21.6506
 20
-9.84999
 11
21.7893
 21
-9.85362
  0
LINE
  8
0
 10
21.7893
 20
-9.85362
 11
21.9276
 21
-9.8645
  0
LINE
  8
0
 10
21.9276
 20
-9.8645
 11
22.0652
 21
-9.88261
  0
LINE
  8
0
 10
22.0652
 20
-9.88261
 11
22.2016
 21
-9.9079
  0
LINE
  8
0
 10
22.2016
 20
-9.9079
 11
22.3365
 21
-9.94029
  0
LINE
  8
0
 10
22.3365
 20
-9.94029
 11
22.4695
 21
-9.97969
  0
LINE
  8
0
 10
22.4695
 20
-9.97969
 11
22.6003
 21
-10.026
  0
LINE
  8
0
 10
22.6003
 20
-10.026
 11
22.7285
 21
-10.0791
  0
LINE
  8
0
 10
22.7285
 20
-10.0791
 11
22.8537
 21
-10.1388
  0
LINE
  8
0
 10
22.8537
 20
-10.1388
 11
22.9756
 21
-10.205
  0
LINE
  8
0
 10
22.9756
 20
-10.205
 11
23.0939
 21
-10.2775
  0
LINE
  8
0
 10
23.0939
 20
-10.2775
 11
23.2083
 21
-10.3561
  0
LINE
  8
0
 10
23.2083
 20
-10.3561
 11
23.3183
 21
-10.4406
  0
LINE
  8
0
 10
23.3183
 20
-10.4406
 11
23.4238
 21
-10.5307
  0
LINE
  8
0
 10
23.4238
 20
-10.5307
 11
23.5245
 21
-10.6262
  0
LINE
  8
0
 10
23.5245
 20
-10.6262
 11
23.62
 21
-10.7268
  0
LINE
  8
0
 10
23.62
 20
-10.7268
 11
23.7101
 21
-10.8323
  0
LINE
  8
0
 10
23.7101
 20
-10.8323
 11
23.7945
 21
-10.9424
  0
LINE
  8
0
 10
23.7945
 20
-10.9424
 11
23.8731
 21
-11.0567
  0
LINE
  8
0
 10
23.8731
 20
-11.0567
 11
23.9456
 21
-11.175
  0
LINE
  8
0
 10
23.9456
 20
-11.175
 11
24.0118
 21
-11.2969
  0
LINE
  8
0
 10
24.0118
 20
-11.2969
 11
24.0715
 21
-11.4221
  0
LINE
  8
0
 10
24.0715
 20
-11.4221
 11
24.1246
 21
-11.5503
  0
LINE
  8
0
 10
24.1246
 20
-11.5503
 11
24.1709
 21
-11.6811
  0
LINE
  8
0
 10
24.1709
 20
-11.6811
 11
24.2103
 21
-11.8141
  0
LINE
  8
0
 10
24.2103
 20
-11.8141
 11
24.2427
 21
-11.949
  0
LINE
  8
0
 10
24.2427
 20
-11.949
 11
24.268
 21
-12.0854
  0
LINE
  8
0
 10
24.268
 20
-12.0854
 11
24.2861
 21
-12.223
  0
LINE
  8
0
 10
24.2861
 20
-12.223
 11
24.297
 21
-12.3613
  0
LINE
  8
0
 10
24.297
 20
-12.3613
 11
24.3006
 21
-12.5
  0
LINE
  8
0
 10
24.3006
 20
-12.5
 11
24.297
 21
-12.6387
  0
LINE
  8
0
 10
24.297
 20
-12.6387
 11
24.2861
 21
-12.777
  0
LINE
  8
0
 10
24.2861
 20
-12.777
 11
24.268
 21
-12.9146
  0
LINE
  8
0
 10
24.268
 20
-12.9146
 11
24.2427
 21
-13.051
  0
LINE
  8
0
 10
24.2427
 20
-13.051
 11
24.2103
 21
-13.1859
  0
LINE
  8
0
 10
24.2103
 20
-13.1859
 11
24.1709
 21
-13.3189
  0
LINE
  8
0
 10
24.1709
 20
-13.3189
 11
24.1246
 21
-13.4497
  0
LINE
  8
0
 10
24.1246
 20
-13.4497
 11
24.0715
 21
-13.5779
  0
LINE
  8
0
 10
24.0715
 20
-13.5779
 11
24.0118
 21
-13.7031
  0
LINE
  8
0
 10
24.0118
 20
-13.7031
 11
23.9456
 21
-13.825
  0
LINE
  8
0
 10
23.9456
 20
-13.825
 11
23.8731
 21
-13.9433
  0
LINE
  8
0
 10
23.8731
 20
-13.9433
 11
23.7945
 21
-14.0576
  0
LINE
  8
0
 10
23.7945
 20
-14.0576
 11
23.7101
 21
-14.1677
  0
LINE
  8
0
 10
23.7101
 20
-14.1677
 11
23.62
 21
-14.2732
  0
LINE
  8
0
 10
23.62
 20
-14.2732
 11
23.5245
 21
-14.3738
  0
LINE
  8
0
 10
23.5245
 20
-14.3738
 11
23.4238
 21
-14.4693
  0
LINE
  8
0
 10
23.4238
 20
-14.4693
 11
23.3183
 21
-14.5594
  0
LINE
  8
0
 10
23.3183
 20
-14.5594
 11
23.2083
 21
-14.6439
  0
LINE
  8
0
 10
23.2083
 20
-14.6439
 11
23.0939
 21
-14.7225
  0
LINE
  8
0
 10
23.0939
 20
-14.7225
 11
22.9756
 21
-14.795
  0
LINE
  8
0
 10
22.9756
 20
-14.795
 11
22.8537
 21
-14.8612
  0
LINE
  8
0
 10
22.8537
 20
-14.8612
 11
22.7285
 21
-14.9209
  0
LINE
  8
0
 10
22.7285
 20
-14.9209
 11
22.6003
 21
-14.974
  0
LINE
  8
0
 10
22.6003
 20
-14.974
 11
22.4695
 21
-15.0203
  0
LINE
  8
0
 10
22.4695
 20
-15.0203
 11
22.3365
 21
-15.0597
  0
LINE
  8
0
 10
22.3365
 20
-15.0597
 11
22.2016
 21
-15.0921
  0
LINE
  8
0
 10
22.2016
 20
-15.0921
 11
22.0652
 21
-15.1174
  0
LINE
  8
0
 10
22.0652
 20
-15.1174
 11
21.9276
 21
-15.1355
  0
LINE
  8
0
 10
21.9276
 20
-15.1355
 11
21.7893
 21
-15.1464
  0
LINE
  8
0
 10
21.7893
 20
-15.1464
 11
21.6506
 21
-15.15
  0
LINE
  8
0
 10
21.6506
 20
-15.15
 11
21.5119
 21
-15.1464
  0
LINE
  8
0
 10
-21.7893
 20
-15.1464
 11
-21.9276
 21
-15.1355
  0
LINE
  8
0
 10
-21.9276
 20
-15.1355
 11
-22.0652
 21
-15.1174
  0
LINE
  8
0
 10
-22.0652
 20
-15.1174
 11
-22.2016
 21
-15.0921
  0
LINE
  8
0
 10
-22.2016
 20
-15.0921
 11
-22.3365
 21
-15.0597
  0
LINE
  8
0
 10
-22.3365
 20
-15.0597
 11
-22.4695
 21
-15.0203
  0
LINE
  8
0
 10
-22.4695
 20
-15.0203
 11
-22.6003
 21
-14.974
  0
LINE
  8
0
 10
-22.6003
 20
-14.974
 11
-22.7285
 21
-14.9209
  0
LINE
  8
0
 10
-22.7285
 20
-14.9209
 11
-22.8537
 21
-14.8612
  0
LINE
  8
0
 10
-22.8537
 20
-14.8612
 11
-22.9756
 21
-14.795
  0
LINE
  8
0
 10
-22.9756
 20
-14.795
 11
-23.0939
 21
-14.7225
  0
LINE
  8
0
 10
-23.0939
 20
-14.7225
 11
-23.2083
 21
-14.6439
  0
LINE
  8
0
 10
-23.2083
 20
-14.6439
 11
-23.3183
 21
-14.5594
  0
LINE
  8
0
 10
-23.3183
 20
-14.5594
 11
-23.4238
 21
-14.4693
  0
LINE
  8
0
 10
-23.4238
 20
-14.4693
 11
-23.5245
 21
-14.3738
  0
LINE
  8
0
 10
-23.5245
 20
-14.3738
 11
-23.62
 21
-14.2732
  0
LINE
  8
0
 10
-23.62
 20
-14.2732
 11
-23.7101
 21
-14.1677
  0
LINE
  8
0
 10
-23.7101
 20
-14.1677
 11
-23.7945
 21
-14.0576
  0
LINE
  8
0
 10
-23.7945
 20
-14.0576
 11
-23.8731
 21
-13.9433
  0
LINE
  8
0
 10
-23.8731
 20
-13.9433
 11
-23.9456
 21
-13.825
  0
LINE
  8
0
 10
-23.9456
 20
-13.825
 11
-24.0118
 21
-13.7031
  0
LINE
  8
0
 10
-24.0118
 20
-13.7031
 11
-24.0715
 21
-13.5779
  0
LINE
  8
0
 10
-24.0715
 20
-13.5779
 11
-24.1246
 21
-13.4497
  0
LINE
  8
0
 10
-24.1246
 20
-13.4497
 11
-24.1709
 21
-13.3189
  0
LINE
  8
0
 10
-24.1709
 20
-13.3189
 11
-24.2103
 21
-13.1859
  0
LINE
  8
0
 10
-24.2103
 20
-13.1859
 11
-24.2427
 21
-13.051
  0
LINE
  8
0
 10
-24.2427
 20
-13.051
 11
-24.268
 21
-12.9146
  0
LINE
  8
0
 10
-24.268
 20
-12.9146
 11
-24.2861
 21
-12.777
  0
LINE
  8
0
 10
-24.2861
 20
-12.777
 11
-24.297
 21
-12.6387
  0
LINE
  8
0
 10
-24.297
 20
-12.6387
 11
-24.3006
 21
-12.5
  0
LINE
  8
0
 10
-24.3006
 20
-12.5
 11
-24.297
 21
-12.3613
  0
LINE
  8
0
 10
-24.297
 20
-12.3613
 11
-24.2861
 21
-12.223
  0
LINE
  8
0
 10
-24.2861
 20
-12.223
 11
-24.268
 21
-12.0854
  0
LINE
  8
0
 10
-24.268
 20
-12.0854
 11
-24.2427
 21
-11.949
  0
LINE
  8
0
 10
-24.2427
 20
-11.949
 11
-24.2103
 21
-11.8141
  0
LINE
  8
0
 10
-24.2103
 20
-11.8141
 11
-24.1709
 21
-11.6811
  0
LINE
  8
0
 10
-24.1709
 20
-11.6811
 11
-24.1246
 21
-11.5503
  0
LINE
  8
0
 10
-24.1246
 20
-11.5503
 11
-24.0715
 21
-11.4221
  0
LINE
  8
0
 10
-24.0715
 20
-11.4221
 11
-24.0118
 21
-11.2969
  0
LINE
  8
0
 10
-24.0118
 20
-11.2969
 11
-23.9456
 21
-11.175
  0
LINE
  8
0
 10
-23.9456
 20
-11.175
 11
-23.8731
 21
-11.0567
  0
LINE
  8
0
 10
-23.8731
 20
-11.0567
 11
-23.7945
 21
-10.9424
  0
LINE
  8
0
 10
-23.7945
 20
-10.9424
 11
-23.7101
 21
-10.8323
  0
LINE
  8
0
 10
-23.7101
 20
-10.8323
 11
-23.62
 21
-10.7268
  0
LINE
  8
0
 10
-23.62
 20
-10.7268
 11
-23.5245
 21
-10.6262
  0
LINE
  8
0
 10
-23.5245
 20
-10.6262
 11
-23.4238
 21
-10.5307
  0
LINE
  8
0
 10
-23.4238
 20
-10.5307
 11
-23.3183
 21
-10.4406
  0
LINE
  8
0
 10
-23.3183
 20
-10.4406
 11
-23.2083
 21
-10.3561
  0
LINE
  8
0
 10
-23.2083
 20
-10.3561
 11
-23.0939
 21
-10.2775
  0
LINE
  8
0
 10
-23.0939
 20
-10.2775
 11
-22.9756
 21
-10.205
  0
LINE
  8
0
 10
-22.9756
 20
-10.205
 11
-22.8537
 21
-10.1388
  0
LINE
  8
0
 10
-22.8537
 20
-10.1388
 11
-22.7285
 21
-10.0791
  0
LINE
  8
0
 10
-22.7285
 20
-10.0791
 11
-22.6003
 21
-10.026
  0
LINE
  8
0
 10
-22.6003
 20
-10.026
 11
-22.4695
 21
-9.97969
  0
LINE
  8
0
 10
-22.4695
 20
-9.97969
 11
-22.3365
 21
-9.94029
  0
LINE
  8
0
 10
-22.3365
 20
-9.94029
 11
-22.2016
 21
-9.9079
  0
LINE
  8
0
 10
-22.2016
 20
-9.9079
 11
-22.0652
 21
-9.88261
  0
LINE
  8
0
 10
-22.0652
 20
-9.88261
 11
-21.9276
 21
-9.8645
  0
LINE
  8
0
 10
-21.9276
 20
-9.8645
 11
-21.7893
 21
-9.85362
  0
LINE
  8
0
 10
-21.7893
 20
-9.85362
 11
-21.6506
 21
-9.84999
  0
LINE
  8
0
 10
-21.6506
 20
-9.84999
 11
-21.5119
 21
-9.85362
  0
LINE
  8
0
 10
-21.5119
 20
-9.85362
 11
-21.3736
 21
-9.8645
  0
LINE
  8
0
 10
-21.3736
 20
-9.8645
 11
-21.2361
 21
-9.88261
  0
LINE
  8
0
 10
-21.2361
 20
-9.88261
 11
-21.0997
 21
-9.9079
  0
LINE
  8
0
 10
-21.0997
 20
-9.9079
 11
-20.9648
 21
-9.94029
  0
LINE
  8
0
 10
-20.9648
 20
-9.94029
 11
-20.8317
 21
-9.97969
  0
LINE
  8
0
 10
-20.8317
 20
-9.97969
 11
-20.701
 21
-10.026
  0
LINE
  8
0
 10
-20.701
 20
-10.026
 11
-20.5728
 21
-10.0791
  0
LINE
  8
0
 10
-20.5728
 20
-10.0791
 11
-20.4476
 21
-10.1388
  0
LINE
  8
0
 10
-20.4476
 20
-10.1388
 11
-20.3256
 21
-10.205
  0
LINE
  8
0
 10
-20.3256
 20
-10.205
 11
-20.2073
 21
-10.2775
  0
LINE
  8
0
 10
-20.2073
 20
-10.2775
 11
-20.093
 21
-10.3561
  0
LINE
  8
0
 10
-20.093
 20
-10.3561
 11
-19.9829
 21
-10.4406
  0
LINE
  8
0
 10
-19.9829
 20
-10.4406
 11
-19.8774
 21
-10.5307
  0
LINE
  8
0
 10
-19.8774
 20
-10.5307
 11
-19.7768
 21
-10.6262
  0
LINE
  8
0
 10
-19.7768
 20
-10.6262
 11
-19.6813
 21
-10.7268
  0
LINE
  8
0
 10
-19.6813
 20
-10.7268
 11
-19.5912
 21
-10.8323
  0
LINE
  8
0
 10
-19.5912
 20
-10.8323
 11
-19.5067
 21
-10.9424
  0
LINE
  8
0
 10
-19.5067
 20
-10.9424
 11
-19.4281
 21
-11.0567
  0
LINE
  8
0
 10
-19.4281
 20
-11.0567
 11
-19.3557
 21
-11.175
  0
LINE
  8
0
 10
-19.3557
 20
-11.175
 11
-19.2895
 21
-11.2969
  0
LINE
  8
0
 10
-19.2895
 20
-11.2969
 11
-19.2297
 21
-11.4221
  0
LINE
  8
0
 10
-19.2297
 20
-11.4221
 11
-19.1766
 21
-11.5503
  0
LINE
  8
0
 10
-19.1766
 20
-11.5503
 11
-19.1303
 21
-11.6811
  0
LINE
  8
0
 10
-19.1303
 20
-11.6811
 11
-19.0909
 21
-11.8141
  0
LINE
  8
0
 10
-19.0909
 20
-11.8141
 11
-19.0585
 21
-11.949
  0
LINE
  8
0
 10
-19.0585
 20
-11.949
 11
-19.0332
 21
-12.0854
  0
LINE
  8
0
 10
-19.0332
 20
-12.0854
 11
-19.0152
 21
-12.223
  0
LINE
  8
0
 10
-19.0152
 20
-12.223
 11
-19.0043
 21
-12.3613
  0
LINE
  8
0
 10
-19.0043
 20
-12.3613
 11
-19.0006
 21
-12.5
  0
LINE
  8
0
 10
-19.0006
 20
-12.5
 11
-19.0043
 21
-12.6387
  0
LINE
  8
0
 10
-19.0043
 20
-12.6387
 11
-19.0152
 21
-12.777
  0
LINE
  8
0
 10
-19.0152
 20
-12.777
 11
-19.0332
 21
-12.9146
  0
LINE
  8
0
 10
-19.0332
 20
-12.9146
 11
-19.0585
 21
-13.051
  0
LINE
  8
0
 10
-19.0585
 20
-13.051
 11
-19.0909
 21
-13.1859
  0
LINE
  8
0
 10
-19.0909
 20
-13.1859
 11
-19.1303
 21
-13.3189
  0
LINE
  8
0
 10
-19.1303
 20
-13.3189
 11
-19.1766
 21
-13.4497
  0
LINE
  8
0
 10
-19.1766
 20
-13.4497
 11
-19.2297
 21
-13.5779
  0
LINE
  8
0
 10
-19.2297
 20
-13.5779
 11
-19.2895
 21
-13.7031
  0
LINE
  8
0
 10
-19.2895
 20
-13.7031
 11
-19.3557
 21
-13.825
  0
LINE
  8
0
 10
-19.3557
 20
-13.825
 11
-19.4281
 21
-13.9433
  0
LINE
  8
0
 10
-19.4281
 20
-13.9433
 11
-19.5067
 21
-14.0576
  0
LINE
  8
0
 10
-19.5067
 20
-14.0576
 11
-19.5912
 21
-14.1677
  0
LINE
  8
0
 10
-19.5912
 20
-14.1677
 11
-19.6813
 21
-14.2732
  0
LINE
  8
0
 10
-19.6813
 20
-14.2732
 11
-19.7768
 21
-14.3738
  0
LINE
  8
0
 10
-19.7768
 20
-14.3738
 11
-19.8774
 21
-14.4693
  0
LINE
  8
0
 10
-19.8774
 20
-14.4693
 11
-19.9829
 21
-14.5594
  0
LINE
  8
0
 10
-19.9829
 20
-14.5594
 11
-20.093
 21
-14.6439
  0
LINE
  8
0
 10
-20.093
 20
-14.6439
 11
-20.2073
 21
-14.7225
  0
LINE
  8
0
 10
-20.2073
 20
-14.7225
 11
-20.3256
 21
-14.795
  0
LINE
  8
0
 10
-20.3256
 20
-14.795
 11
-20.4476
 21
-14.8612
  0
LINE
  8
0
 10
-20.4476
 20
-14.8612
 11
-20.5728
 21
-14.9209
  0
LINE
  8
0
 10
-20.5728
 20
-14.9209
 11
-20.701
 21
-14.974
  0
LINE
  8
0
 10
-20.701
 20
-14.974
 11
-20.8317
 21
-15.0203
  0
LINE
  8
0
 10
-20.8317
 20
-15.0203
 11
-20.9648
 21
-15.0597
  0
LINE
  8
0
 10
-20.9648
 20
-15.0597
 11
-21.0997
 21
-15.0921
  0
LINE
  8
0
 10
-21.0997
 20
-15.0921
 11
-21.2361
 21
-15.1174
  0
LINE
  8
0
 10
-21.2361
 20
-15.1174
 11
-21.3736
 21
-15.1355
  0
LINE
  8
0
 10
-21.3736
 20
-15.1355
 11
-21.5119
 21
-15.1464
  0
LINE
  8
0
 10
-21.5119
 20
-15.1464
 11
-21.6506
 21
-15.15
  0
LINE
  8
0
 10
-21.6506
 20
-15.15
 11
-21.7893
 21
-15.1464
  0
LINE
  8
0
 10
-0.138687
 20
-27.6464
 11
-0.276993
 21
-27.6355
  0
LINE
  8
0
 10
-0.276993
 20
-27.6355
 11
-0.414551
 21
-27.6174
  0
LINE
  8
0
 10
-0.414551
 20
-27.6174
 11
-0.550964
 21
-27.5921
  0
LINE
  8
0
 10
-0.550964
 20
-27.5921
 11
-0.685867
 21
-27.5597
  0
LINE
  8
0
 10
-0.685867
 20
-27.5597
 11
-0.818893
 21
-27.5203
  0
LINE
  8
0
 10
-0.818893
 20
-27.5203
 11
-0.949661
 21
-27.474
  0
LINE
  8
0
 10
-0.949661
 20
-27.474
 11
-1.07785
 21
-27.4209
  0
LINE
  8
0
 10
-1.07785
 20
-27.4209
 11
-1.20306
 21
-27.3612
  0
LINE
  8
0
 10
-1.20306
 20
-27.3612
 11
-1.325
 21
-27.295
  0
LINE
  8
0
 10
-1.325
 20
-27.295
 11
-1.44328
 21
-27.2225
  0
LINE
  8
0
 10
-1.44328
 20
-27.2225
 11
-1.55762
 21
-27.1439
  0
LINE
  8
0
 10
-1.55762
 20
-27.1439
 11
-1.66769
 21
-27.0594
  0
LINE
  8
0
 10
-1.66769
 20
-27.0594
 11
-1.77319
 21
-26.9693
  0
LINE
  8
0
 10
-1.77319
 20
-26.9693
 11
-1.87383
 21
-26.8738
  0
LINE
  8
0
 10
-1.87383
 20
-26.8738
 11
-1.96933
 21
-26.7732
  0
LINE
  8
0
 10
-1.96933
 20
-26.7732
 11
-2.05943
 21
-26.6677
  0
LINE
  8
0
 10
-2.05943
 20
-26.6677
 11
-2.14389
 21
-26.5576
  0
LINE
  8
0
 10
-2.14389
 20
-26.5576
 11
-2.22247
 21
-26.4433
  0
LINE
  8
0
 10
-2.22247
 20
-26.4433
 11
-2.29495
 21
-26.325
  0
LINE
  8
0
 10
-2.29495
 20
-26.325
 11
-2.36116
 21
-26.2031
  0
LINE
  8
0
 10
-2.36116
 20
-26.2031
 11
-2.42088
 21
-26.0779
  0
LINE
  8
0
 10
-2.42088
 20
-26.0779
 11
-2.47398
 21
-25.9497
  0
LINE
  8
0
 10
-2.47398
 20
-25.9497
 11
-2.52029
 21
-25.8189
  0
LINE
  8
0
 10
-2.52029
 20
-25.8189
 11
-2.55969
 21
-25.6859
  0
LINE
  8
0
 10
-2.55969
 20
-25.6859
 11
-2.59209
 21
-25.551
  0
LINE
  8
0
 10
-2.59209
 20
-25.551
 11
-2.61737
 21
-25.4146
  0
LINE
  8
0
 10
-2.61737
 20
-25.4146
 11
-2.63548
 21
-25.277
  0
LINE
  8
0
 10
-2.63548
 20
-25.277
 11
-2.64636
 21
-25.1387
  0
LINE
  8
0
 10
-2.64636
 20
-25.1387
 11
-2.64999
 21
-25
  0
LINE
  8
0
 10
-2.64999
 20
-25
 11
-2.64636
 21
-24.8613
  0
LINE
  8
0
 10
-2.64636
 20
-24.8613
 11
-2.63548
 21
-24.723
  0
LINE
  8
0
 10
-2.63548
 20
-24.723
 11
-2.61737
 21
-24.5854
  0
LINE
  8
0
 10
-2.61737
 20
-24.5854
 11
-2.59209
 21
-24.449
  0
LINE
  8
0
 10
-2.59209
 20
-24.449
 11
-2.55969
 21
-24.3141
  0
LINE
  8
0
 10
-2.55969
 20
-24.3141
 11
-2.52029
 21
-24.1811
  0
LINE
  8
0
 10
-2.52029
 20
-24.1811
 11
-2.47398
 21
-24.0503
  0
LINE
  8
0
 10
-2.47398
 20
-24.0503
 11
-2.42088
 21
-23.9221
  0
LINE
  8
0
 10
-2.42088
 20
-23.9221
 11
-2.36116
 21
-23.7969
  0
LINE
  8
0
 10
-2.36116
 20
-23.7969
 11
-2.29495
 21
-23.675
  0
LINE
  8
0
 10
-2.29495
 20
-23.675
 11
-2.22247
 21
-23.5567
  0
LINE
  8
0
 10
-2.22247
 20
-23.5567
 11
-2.14389
 21
-23.4424
  0
LINE
  8
0
 10
-2.14389
 20
-23.4424
 11
-2.05943
 21
-23.3323
  0
LINE
  8
0
 10
-2.05943
 20
-23.3323
 11
-1.96933
 21
-23.2268
  0
LINE
  8
0
 10
-1.96933
 20
-23.2268
 11
-1.87383
 21
-23.1262
  0
LINE
  8
0
 10
-1.87383
 20
-23.1262
 11
-1.77319
 21
-23.0307
  0
LINE
  8
0
 10
-1.77319
 20
-23.0307
 11
-1.66769
 21
-22.9406
  0
LINE
  8
0
 10
-1.66769
 20
-22.9406
 11
-1.55762
 21
-22.8561
  0
LINE
  8
0
 10
-1.55762
 20
-22.8561
 11
-1.44328
 21
-22.7775
  0
LINE
  8
0
 10
-1.44328
 20
-22.7775
 11
-1.325
 21
-22.705
  0
LINE
  8
0
 10
-1.325
 20
-22.705
 11
-1.20306
 21
-22.6388
  0
LINE
  8
0
 10
-1.20306
 20
-22.6388
 11
-1.07785
 21
-22.5791
  0
LINE
  8
0
 10
-1.07785
 20
-22.5791
 11
-0.949661
 21
-22.526
  0
LINE
  8
0
 10
-0.949661
 20
-22.526
 11
-0.818893
 21
-22.4797
  0
LINE
  8
0
 10
-0.818893
 20
-22.4797
 11
-0.685867
 21
-22.4403
  0
LINE
  8
0
 10
-0.685867
 20
-22.4403
 11
-0.550964
 21
-22.4079
  0
LINE
  8
0
 10
-0.550964
 20
-22.4079
 11
-0.414551
 21
-22.3826
  0
LINE
  8
0
 10
-0.414551
 20
-22.3826
 11
-0.276993
 21
-22.3645
  0
LINE
  8
0
 10
-0.276993
 20
-22.3645
 11
-0.138687
 21
-22.3536
  0
LINE
  8
0
 10
-0.138687
 20
-22.3536
 11
0
 21
-22.35
  0
LINE
  8
0
 10
0
 20
-22.35
 11
0.138687
 21
-22.3536
  0
LINE
  8
0
 10
0.138687
 20
-22.3536
 11
0.276993
 21
-22.3645
  0
LINE
  8
0
 10
0.276993
 20
-22.3645
 11
0.414551
 21
-22.3826
  0
LINE
  8
0
 10
0.414551
 20
-22.3826
 11
0.550964
 21
-22.4079
  0
LINE
  8
0
 10
0.550964
 20
-22.4079
 11
0.685867
 21
-22.4403
  0
LINE
  8
0
 10
0.685867
 20
-22.4403
 11
0.818893
 21
-22.4797
  0
LINE
  8
0
 10
0.818893
 20
-22.4797
 11
0.949661
 21
-22.526
  0
LINE
  8
0
 10
0.949661
 20
-22.526
 11
1.07785
 21
-22.5791
  0
LINE
  8
0
 10
1.07785
 20
-22.5791
 11
1.20306
 21
-22.6388
  0
LINE
  8
0
 10
1.20306
 20
-22.6388
 11
1.325
 21
-22.705
  0
LINE
  8
0
 10
1.325
 20
-22.705
 11
1.44328
 21
-22.7775
  0
LINE
  8
0
 10
1.44328
 20
-22.7775
 11
1.55762
 21
-22.8561
  0
LINE
  8
0
 10
1.55762
 20
-22.8561
 11
1.66769
 21
-22.9406
  0
LINE
  8
0
 10
1.66769
 20
-22.9406
 11
1.77319
 21
-23.0307
  0
LINE
  8
0
 10
1.77319
 20
-23.0307
 11
1.87383
 21
-23.1262
  0
LINE
  8
0
 10
1.87383
 20
-23.1262
 11
1.96933
 21
-23.2268
  0
LINE
  8
0
 10
1.96933
 20
-23.2268
 11
2.05943
 21
-23.3323
  0
LINE
  8
0
 10
2.05943
 20
-23.3323
 11
2.14389
 21
-23.4424
  0
LINE
  8
0
 10
2.14389
 20
-23.4424
 11
2.22247
 21
-23.5567
  0
LINE
  8
0
 10
2.22247
 20
-23.5567
 11
2.29495
 21
-23.675
  0
LINE
  8
0
 10
2.29495
 20
-23.675
 11
2.36116
 21
-23.7969
  0
LINE
  8
0
 10
2.36116
 20
-23.7969
 11
2.42088
 21
-23.9221
  0
LINE
  8
0
 10
2.42088
 20
-23.9221
 11
2.47398
 21
-24.0503
  0
LINE
  8
0
 10
2.47398
 20
-24.0503
 11
2.52029
 21
-24.1811
  0
LINE
  8
0
 10
2.52029
 20
-24.1811
 11
2.55969
 21
-24.3141
  0
LINE
  8
0
 10
2.55969
 20
-24.3141
 11
2.59209
 21
-24.449
  0
LINE
  8
0
 10
2.59209
 20
-24.449
 11
2.61737
 21
-24.5854
  0
LINE
  8
0
 10
2.61737
 20
-24.5854
 11
2.63548
 21
-24.723
  0
LINE
  8
0
 10
2.63548
 20
-24.723
 11
2.64636
 21
-24.8613
  0
LINE
  8
0
 10
2.64636
 20
-24.8613
 11
2.64999
 21
-25
  0
LINE
  8
0
 10
2.64999
 20
-25
 11
2.64636
 21
-25.1387
  0
LINE
  8
0
 10
2.64636
 20
-25.1387
 11
2.63548
 21
-25.277
  0
LINE
  8
0
 10
2.63548
 20
-25.277
 11
2.61737
 21
-25.4146
  0
LINE
  8
0
 10
2.61737
 20
-25.4146
 11
2.59209
 21
-25.551
  0
LINE
  8
0
 10
2.59209
 20
-25.551
 11
2.55969
 21
-25.6859
  0
LINE
  8
0
 10
2.55969
 20
-25.6859
 11
2.52029
 21
-25.8189
  0
LINE
  8
0
 10
2.52029
 20
-25.8189
 11
2.47398
 21
-25.9497
  0
LINE
  8
0
 10
2.47398
 20
-25.9497
 11
2.42088
 21
-26.0779
  0
LINE
  8
0
 10
2.42088
 20
-26.0779
 11
2.36116
 21
-26.2031
  0
LINE
  8
0
 10
2.36116
 20
-26.2031
 11
2.29495
 21
-26.325
  0
LINE
  8
0
 10
2.29495
 20
-26.325
 11
2.22247
 21
-26.4433
  0
LINE
  8
0
 10
2.22247
 20
-26.4433
 11
2.14389
 21
-26.5576
  0
LINE
  8
0
 10
2.14389
 20
-26.5576
 11
2.05943
 21
-26.6677
  0
LINE
  8
0
 10
2.05943
 20
-26.6677
 11
1.96933
 21
-26.7732
  0
LINE
  8
0
 10
1.96933
 20
-26.7732
 11
1.87383
 21
-26.8738
  0
LINE
  8
0
 10
1.87383
 20
-26.8738
 11
1.77319
 21
-26.9693
  0
LINE
  8
0
 10
1.77319
 20
-26.9693
 11
1.66769
 21
-27.0594
  0
LINE
  8
0
 10
1.66769
 20
-27.0594
 11
1.55762
 21
-27.1439
  0
LINE
  8
0
 10
1.55762
 20
-27.1439
 11
1.44328
 21
-27.2225
  0
LINE
  8
0
 10
1.44328
 20
-27.2225
 11
1.325
 21
-27.295
  0
LINE
  8
0
 10
1.325
 20
-27.295
 11
1.20306
 21
-27.3612
  0
LINE
  8
0
 10
1.20306
 20
-27.3612
 11
1.07785
 21
-27.4209
  0
LINE
  8
0
 10
1.07785
 20
-27.4209
 11
0.949661
 21
-27.474
  0
LINE
  8
0
 10
0.949661
 20
-27.474
 11
0.818893
 21
-27.5203
  0
LINE
  8
0
 10
0.818893
 20
-27.5203
 11
0.685867
 21
-27.5597
  0
LINE
  8
0
 10
0.685867
 20
-27.5597
 11
0.550964
 21
-27.5921
  0
LINE
  8
0
 10
0.550964
 20
-27.5921
 11
0.414551
 21
-27.6174
  0
LINE
  8
0
 10
0.414551
 20
-27.6174
 11
0.276993
 21
-27.6355
  0
LINE
  8
0
 10
0.276993
 20
-27.6355
 11
0.138687
 21
-27.6464
  0
LINE
  8
0
 10
0.138687
 20
-27.6464
 11
0
 21
-27.65
  0
LINE
  8
0
 10
0
 20
-27.65
 11
-0.138687
 21
-27.6464
  0
ENDSEC
  0
SECTION
  2
OBJECTS
  0
DICTIONARY
  0
ENDSEC
  0
EOF
