solid OpenSCAD_Model
  facet normal -0.951056 0.309019 0
    outer loop
      vertex -191.765 -40.6125 0
      vertex -189.474 -33.5591 8
      vertex -189.474 -33.5591 0
    endloop
  endfacet
  facet normal -0.951056 0.309019 0
    outer loop
      vertex -189.474 -33.5591 8
      vertex -191.765 -40.6125 0
      vertex -191.765 -40.6125 8
    endloop
  endfacet
  facet normal -0.866025 -0.5 0
    outer loop
      vertex -134.762 -142.429 0
      vertex -189.474 -47.666 8
      vertex -189.474 -47.666 0
    endloop
  endfacet
  facet normal -0.866025 -0.5 0
    outer loop
      vertex -189.474 -47.666 8
      vertex -134.762 -142.429 0
      vertex -134.762 -142.429 8
    endloop
  endfacet
  facet normal 0 0 -1
    outer loop
      vertex 189.474 -47.666 0
      vertex 189.474 -33.5591 0
      vertex 191.765 -40.6125 0
    endloop
  endfacet
  facet normal 0 0 -1
    outer loop
      vertex 134.762 -142.429 0
      vertex 189.474 -33.5591 0
      vertex 189.474 -47.666 0
    endloop
  endfacet
  facet normal 0 0 -1
    outer loop
      vertex 128.762 -146.788 0
      vertex 189.474 -33.5591 0
      vertex 134.762 -142.429 0
    endloop
  endfacet
  facet normal 0 0 -1
    outer loop
      vertex -189.474 -33.5591 0
      vertex 189.474 -33.5591 0
      vertex 128.762 -146.788 0
    endloop
  endfacet
  facet normal 0 0 -1
    outer loop
      vertex 189.474 -33.5591 0
      vertex -189.474 -33.5591 0
      vertex 64.4194 183.041 0
    endloop
  endfacet
  facet normal 0 0 -1
    outer loop
      vertex 64.4194 183.041 0
      vertex -64.4194 183.041 0
      vertex 58.4194 187.4 0
    endloop
  endfacet
  facet normal -0 0 -1
    outer loop
      vertex 58.4194 187.4 0
      vertex -64.4194 183.041 0
      vertex -58.4194 187.4 0
    endloop
  endfacet
  facet normal 0 0 -1
    outer loop
      vertex -189.474 -33.5591 0
      vertex 128.762 -146.788 0
      vertex -128.762 -146.788 0
    endloop
  endfacet
  facet normal 0 0 -1
    outer loop
      vertex -189.474 -33.5591 0
      vertex -128.762 -146.788 0
      vertex -134.762 -142.429 0
    endloop
  endfacet
  facet normal 0 0 -1
    outer loop
      vertex -189.474 -33.5591 0
      vertex -134.762 -142.429 0
      vertex -189.474 -47.666 0
    endloop
  endfacet
  facet normal -0 0 -1
    outer loop
      vertex 64.4194 183.041 0
      vertex -189.474 -33.5591 0
      vertex -64.4194 183.041 0
    endloop
  endfacet
  facet normal 0 -0 -1
    outer loop
      vertex -189.474 -33.5591 0
      vertex -189.474 -47.666 0
      vertex -191.765 -40.6125 0
    endloop
  endfacet
  facet normal 0 0 1
    outer loop
      vertex 189.474 -33.5591 8
      vertex 189.474 -47.666 8
      vertex 191.765 -40.6125 8
    endloop
  endfacet
  facet normal 0 0 1
    outer loop
      vertex 189.474 -33.5591 8
      vertex 134.762 -142.429 8
      vertex 189.474 -47.666 8
    endloop
  endfacet
  facet normal 0 0 1
    outer loop
      vertex 189.474 -33.5591 8
      vertex 128.762 -146.788 8
      vertex 134.762 -142.429 8
    endloop
  endfacet
  facet normal 0 0 1
    outer loop
      vertex -189.474 -33.5591 8
      vertex 189.474 -33.5591 8
      vertex 64.4194 183.041 8
    endloop
  endfacet
  facet normal 0 0 1
    outer loop
      vertex -64.4194 183.041 8
      vertex 64.4194 183.041 8
      vertex 58.4194 187.4 8
    endloop
  endfacet
  facet normal 0 0 1
    outer loop
      vertex -64.4194 183.041 8
      vertex 58.4194 187.4 8
      vertex -58.4194 187.4 8
    endloop
  endfacet
  facet normal 0 0 1
    outer loop
      vertex -189.474 -33.5591 8
      vertex 64.4194 183.041 8
      vertex -64.4194 183.041 8
    endloop
  endfacet
  facet normal 0 0 1
    outer loop
      vertex 189.474 -33.5591 8
      vertex -189.474 -33.5591 8
      vertex 128.762 -146.788 8
    endloop
  endfacet
  facet normal 0 0 1
    outer loop
      vertex 128.762 -146.788 8
      vertex -189.474 -33.5591 8
      vertex -128.762 -146.788 8
    endloop
  endfacet
  facet normal 0 0 1
    outer loop
      vertex -128.762 -146.788 8
      vertex -189.474 -33.5591 8
      vertex -134.762 -142.429 8
    endloop
  endfacet
  facet normal 0 0 1
    outer loop
      vertex -189.474 -33.5591 8
      vertex -189.474 -47.666 8
      vertex -134.762 -142.429 8
    endloop
  endfacet
  facet normal 0 -0 1
    outer loop
      vertex -189.474 -47.666 8
      vertex -189.474 -33.5591 8
      vertex -191.765 -40.6125 8
    endloop
  endfacet
  facet normal 0.866025 -0.5 0
    outer loop
      vertex 134.762 -142.429 8
      vertex 189.474 -47.666 0
      vertex 189.474 -47.666 8
    endloop
  endfacet
  facet normal 0.866025 -0.5 0
    outer loop
      vertex 189.474 -47.666 0
      vertex 134.762 -142.429 8
      vertex 134.762 -142.429 0
    endloop
  endfacet
  facet normal 0.587785 -0.809017 0
    outer loop
      vertex 128.762 -146.788 0
      vertex 134.762 -142.429 8
      vertex 128.762 -146.788 8
    endloop
  endfacet
  facet normal 0.587785 -0.809017 0
    outer loop
      vertex 134.762 -142.429 8
      vertex 128.762 -146.788 0
      vertex 134.762 -142.429 0
    endloop
  endfacet
  facet normal -0.951056 -0.309019 0
    outer loop
      vertex -189.474 -47.666 0
      vertex -191.765 -40.6125 8
      vertex -191.765 -40.6125 0
    endloop
  endfacet
  facet normal -0.951056 -0.309019 0
    outer loop
      vertex -191.765 -40.6125 8
      vertex -189.474 -47.666 0
      vertex -189.474 -47.666 8
    endloop
  endfacet
  facet normal -0.866025 0.5 0
    outer loop
      vertex -189.474 -33.5591 0
      vertex -64.4194 183.041 8
      vertex -64.4194 183.041 0
    endloop
  endfacet
  facet normal -0.866025 0.5 0
    outer loop
      vertex -64.4194 183.041 8
      vertex -189.474 -33.5591 0
      vertex -189.474 -33.5591 8
    endloop
  endfacet
  facet normal -0.587785 0.809017 0
    outer loop
      vertex -58.4194 187.4 0
      vertex -64.4194 183.041 8
      vertex -58.4194 187.4 8
    endloop
  endfacet
  facet normal -0.587785 0.809017 0
    outer loop
      vertex -64.4194 183.041 8
      vertex -58.4194 187.4 0
      vertex -64.4194 183.041 0
    endloop
  endfacet
  facet normal 0.951056 0.309019 0
    outer loop
      vertex 191.765 -40.6125 8
      vertex 189.474 -33.5591 0
      vertex 189.474 -33.5591 8
    endloop
  endfacet
  facet normal 0.951056 0.309019 0
    outer loop
      vertex 189.474 -33.5591 0
      vertex 191.765 -40.6125 8
      vertex 191.765 -40.6125 0
    endloop
  endfacet
  facet normal 0.951056 -0.309019 0
    outer loop
      vertex 189.474 -47.666 8
      vertex 191.765 -40.6125 0
      vertex 191.765 -40.6125 8
    endloop
  endfacet
  facet normal 0.951056 -0.309019 0
    outer loop
      vertex 191.765 -40.6125 0
      vertex 189.474 -47.666 8
      vertex 189.474 -47.666 0
    endloop
  endfacet
  facet normal 0 1 -0
    outer loop
      vertex 58.4194 187.4 0
      vertex -58.4194 187.4 8
      vertex 58.4194 187.4 8
    endloop
  endfacet
  facet normal 0 1 0
    outer loop
      vertex -58.4194 187.4 8
      vertex 58.4194 187.4 0
      vertex -58.4194 187.4 0
    endloop
  endfacet
  facet normal 0.587785 0.809017 -0
    outer loop
      vertex 64.4194 183.041 0
      vertex 58.4194 187.4 8
      vertex 64.4194 183.041 8
    endloop
  endfacet
  facet normal 0.587785 0.809017 0
    outer loop
      vertex 58.4194 187.4 8
      vertex 64.4194 183.041 0
      vertex 58.4194 187.4 0
    endloop
  endfacet
  facet normal 0.866025 0.5 0
    outer loop
      vertex 189.474 -33.5591 8
      vertex 64.4194 183.041 0
      vertex 64.4194 183.041 8
    endloop
  endfacet
  facet normal 0.866025 0.5 0
    outer loop
      vertex 64.4194 183.041 0
      vertex 189.474 -33.5591 8
      vertex 189.474 -33.5591 0
    endloop
  endfacet
  facet normal 0 -1 0
    outer loop
      vertex -128.762 -146.788 0
      vertex 128.762 -146.788 8
      vertex -128.762 -146.788 8
    endloop
  endfacet
  facet normal 0 -1 -0
    outer loop
      vertex 128.762 -146.788 8
      vertex -128.762 -146.788 0
      vertex 128.762 -146.788 0
    endloop
  endfacet
  facet normal -0.587785 -0.809017 0
    outer loop
      vertex -134.762 -142.429 0
      vertex -128.762 -146.788 8
      vertex -134.762 -142.429 8
    endloop
  endfacet
  facet normal -0.587785 -0.809017 -0
    outer loop
      vertex -128.762 -146.788 8
      vertex -134.762 -142.429 0
      vertex -128.762 -146.788 0
    endloop
  endfacet
endsolid OpenSCAD_Model
